<svg viewBox="0 0 197 50" fill="none" xmlns="http://www.w3.org/2000/svg"><g clip-path="url(#a)"><path d="M14.346 7.556c.336.111.686.191 1.006.338 2.271 1.038 4.363 2.361 6.157 4.104 1.345 1.308 2.615 2.693 3.953 4.08.407-.487.867-1.064 1.354-1.617 3.173-3.604 6.903-6.384 11.62-7.615 3.026-.79 5.718-.011 7.994 2.088 2.154 1.986 3.285 4.49 3.529 7.417.213 2.546-.411 4.869-1.654 7.072-1.075 1.906-2.31 3.694-3.761 5.33a3.638 3.638 0 0 1-.676.587c-.156-.012-.245.122-.34.183" stroke="url(#b)" stroke-width=".2"/><path d="M.01 15.402c.442.31.884.66 1.319 1.018 2.854 2.351 5.922 4.393 9.1 6.273a134.43 134.43 0 0 0 14.2 7.321c2.21.974 4.494 1.71 6.897 1.992 4.278.5 8.292-.267 11.951-2.626.095-.06.235-.052.358-.044-.019.035-.037.048-.084.09a.611.611 0 0 0-.106.172s.014.016-.018.01c-.043.025-.054.055-.065.086 0 0 .012.005-.023.002a.651.651 0 0 0-.148.185s.002.001-.023.002a.198.198 0 0 0-.063.09s0-.002-.025 0a.206.206 0 0 0-.061.093s-.004-.006-.026 0a.254.254 0 0 0-.059.094s-.009-.01-.028-.002c-.032.037-.044.066-.057.095 0 0-.014-.013-.031-.002-.03.038-.043.066-.056.093 0 0-.016-.012-.032-.001a.509.509 0 0 0-.056.091s-.011-.006-.03.003c-.038.031-.057.054-.077.077a14.45 14.45 0 0 0-.201.138.44.44 0 0 0-.084.11s.015.007-.024 0c-1.087.563-2.096 1.223-3.188 1.686-4.409 1.867-8.918 1.828-13.447.492-3.182-.94-6.235-2.223-9.223-3.662-4.368-2.103-8.542-4.533-12.416-7.455C2.9 20.854 1.686 19.791.44 18.771c0 0 .01-.006.004-.023-.02-.046-.041-.064-.072-.071-.321-1.055-.402-2.138-.363-3.275Z" fill="url(#c)"/><path d="M41.165 32.219a105.2 105.2 0 0 1-2.172 2.224c-.21.075-.367.123-.512.193-3.385 1.65-6.962 2.156-10.683 1.795-1.991-.193-3.93-.637-5.836-1.239a53.464 53.464 0 0 1-6.69-2.613c-2.955-1.392-5.8-2.975-8.495-4.824l-2.386-1.637s.004-.002-.001-.024c-.031-.04-.057-.056-.084-.074-1.21-1.75-2.398-3.515-3.257-5.475a6.346 6.346 0 0 1-.295-.765c.11.03.195.09.278.153 1.753 1.343 3.45 2.77 5.27 4.013a76.198 76.198 0 0 0 17.395 8.846c2.949 1.054 5.95 1.715 9.107 1.59a19.06 19.06 0 0 0 7.873-2.01c.15-.075.325-.103.488-.153Z" fill="url(#d)"/><path d="M44.967 27.424c-1.462 1.338-3.152 2.303-4.993 3.003-4.004 1.522-8.037 1.364-12.069.129-3.052-.935-5.879-2.399-8.722-3.815-4.559-2.27-8.994-4.758-13.204-7.631-2.036-1.39-4.003-2.87-5.845-4.556.132-.713.29-1.412.468-2.138 1.78 1.232 3.481 2.583 5.312 3.727 3.567 2.23 7.188 4.376 10.822 6.495a288.352 288.352 0 0 0 8.866 4.965c2.775 1.49 5.75 2.434 8.907 2.606 3.644.198 7.05-.636 10.112-2.69a.996.996 0 0 1 .27-.136c.055.02.065.03.076.041Z" fill="url(#e)"/><path d="M34.311 38.739s-.02.011-.068.012c-.15.023-.252.04-.352.07-3.304.946-6.65 1.153-10.044.59-3.32-.55-6.458-1.66-9.52-3.014-.16-.071-.334-.114-.5-.17 0 0-.01.018-.015-.015a.175.175 0 0 0-.099-.058c-.67-.613-1.375-1.19-2-1.845-1.813-1.892-3.594-3.814-5.411-5.772a.394.394 0 0 0-.103-.101s-.01.01-.007-.018c-.022-.045-.047-.061-.072-.078 0 0-.02.016-.013-.02a.357.357 0 0 0-.11-.134s.01-.007.004-.027c-.032-.037-.06-.053-.086-.069 0 0 .004-.001.004-.025-.012-.057-.023-.09-.015-.142.03-.033.043-.046.083-.049a9 9 0 0 1 .404.256c4.374 2.953 9.027 5.354 14.01 7.103 2.64.926 5.338 1.611 8.137 1.79a20.91 20.91 0 0 0 8.898-1.341c.105-.04.227-.037.341-.055a253.23 253.23 0 0 1-3.344 3.035.36.36 0 0 0-.122.077Z" fill="url(#f)"/><path d="M43.596 27.214c-1.642 1.1-3.47 1.723-5.402 2.034-3.795.61-7.42-.077-10.852-1.69-2.144-1.008-4.209-2.194-6.264-3.377-4.645-2.674-9.3-5.335-13.875-8.123C5.04 14.74 3.05 13.143.953 11.662c.266-.543.56-1.076.881-1.623 1.504.944 2.959 1.938 4.46 2.857 4.469 2.736 8.97 5.42 13.43 8.172 1.904 1.175 3.716 2.5 5.606 3.7 2.822 1.792 5.83 3.136 9.177 3.613 2.962.422 5.834.154 8.586-1.079.122-.055.25-.098.423-.134.059.024.07.035.08.046Z" fill="url(#g)"/><path d="M3.559 8.105c1.7.919 3.375 1.836 5.04 2.773 4.297 2.42 8.5 4.992 12.438 7.97 1.583 1.198 3.081 2.51 4.674 3.693 2.573 1.911 5.362 3.404 8.51 4.167 2.595.629 5.173.584 7.753-.063.124-.032.25-.059.374-.088l.038.131c-.665.198-1.322.426-1.995.589-4.525 1.095-8.715.049-12.666-2.144-1.875-1.04-3.61-2.33-5.438-3.462-4.302-2.666-8.625-5.3-12.931-7.96-2.325-1.435-4.633-2.898-6.978-4.358.365-.419.758-.83 1.18-1.248Z" fill="url(#h)"/><path d="M6.416 6.564c1.154.564 2.285 1.102 3.387 1.694 4.88 2.618 9.398 5.737 13.347 9.645 2.044 2.023 4.229 3.872 6.721 5.328 2.765 1.613 5.717 2.613 8.945 2.685.298.007.596-.037.894-.046.294-.009.59-.002.884-.002l.007.12c-.928.051-1.858.156-2.785.144-3.956-.052-7.416-1.566-10.583-3.79-1.878-1.319-3.634-2.812-5.46-4.206-4.343-3.314-9.018-6.109-13.776-8.77-1.147-.64-2.305-1.26-3.488-1.898a40.2 40.2 0 0 1 1.907-.904Z" fill="url(#i)"/><path d="M22.048 42.99c-.79-.561-1.614-1.079-2.36-1.691a185.371 185.371 0 0 1-5.234-4.48c.287.068.537.164.783.271a38.382 38.382 0 0 0 7.577 2.42c2.896.598 5.806.646 8.722.144.76-.13 1.516-.296 2.274-.446-1.624 1.25-3.248 2.501-4.94 3.755-1.404.091-2.736.23-4.07.249-.917.013-1.835-.143-2.752-.223Z" fill="url(#j)"/><path d="M32.904 23.427c-.996-.5-2.028-.94-2.982-1.51-2.073-1.241-3.917-2.79-5.621-4.495C19.669 12.79 14.313 9.194 8.459 6.25c1.955-.012 3.834.433 5.69 1.23.096.05.148.064.2.078l-.002-.001c.367.271.73.551 1.104.814 2.881 2.016 5.393 4.43 7.69 7.083 2.13 2.46 4.491 4.67 7.256 6.416.819.518 1.662.998 2.5 1.526l.007.03Z" fill="url(#k)"/><path d="M28.422 43.321c-.745.406-1.488.816-2.237 1.215-.62.33-1.235.269-1.827-.082a39.64 39.64 0 0 1-1.887-1.18c1.626.157 3.227.238 4.834.058.368-.04.744-.009 1.117-.01Z" fill="url(#l)"/><path d="M14.338 7.53c-.041.014-.093 0-.16-.038.04-.012.095 0 .16.039Z" fill="url(#m)"/><path d="M5.998 28.213c.038.006.077.039.119.098-.038-.005-.078-.038-.119-.098Z" fill="url(#n)"/><path d="M5.917 28.114c.025-.008.052.008.08.05-.024.008-.05-.009-.08-.05Z" fill="url(#o)"/><path d="M4.31 26.045c.023-.007.049.01.08.051-.023.007-.05-.01-.08-.051Z" fill="url(#p)"/><path d="M.374 18.7c.029-.016.05.002.066.052-.031.019-.054.002-.066-.053Z" fill="url(#q)"/><path d="M6.122 28.363c.023-.007.048.01.076.05-.023.008-.049-.01-.076-.05Z" fill="url(#r)"/><path d="M6.203 28.46c.022-.006.049.012.079.056-.023.006-.049-.012-.08-.056Z" fill="url(#s)"/><path d="M14.354 36.803c.005-.027.036-.035.074-.026-.01.026-.03.035-.074.026Z" fill="url(#t)"/><path d="M13.724 36.176c.02-.014.051-.005.091.027-.02.014-.05.005-.091-.027Z" fill="url(#u)"/><path d="m32.905 23.426.124.047a.24.24 0 0 1-.114-.024l-.01-.023Z" fill="url(#v)"/></g><path d="M67.578 33.5v-16h10.406v2.43h-7.507v4.343h6.968v2.43h-6.968v4.367h7.57v2.43H67.578ZM88.824 38v-6.39h-.117a4.833 4.833 0 0 1-.633.93c-.276.322-.64.598-1.093.827-.454.23-1.024.344-1.712.344-.942 0-1.786-.242-2.53-.727-.746-.484-1.334-1.187-1.766-2.109-.433-.922-.649-2.042-.649-3.36 0-1.333.219-2.458.657-3.374.442-.922 1.038-1.618 1.788-2.086a4.597 4.597 0 0 1 2.508-.711c.704 0 1.282.12 1.735.36.453.233.812.517 1.078.85.266.329.471.639.617.93h.172V21.5h2.781V38h-2.836Zm-2.765-6.61c.599 0 1.109-.16 1.53-.484.423-.328.743-.784.962-1.367.218-.583.328-1.263.328-2.039 0-.776-.11-1.45-.328-2.023-.214-.573-.532-1.019-.953-1.336-.417-.318-.93-.477-1.54-.477-.63 0-1.156.164-1.578.492-.421.328-.74.782-.953 1.36-.213.578-.32 1.24-.32 1.984 0 .75.107 1.42.32 2.008.22.583.54 1.044.961 1.383.427.333.95.5 1.57.5Zm16.156-2.937V21.5h2.828v12h-2.742v-2.133h-.125a3.608 3.608 0 0 1-1.336 1.649c-.615.427-1.373.64-2.274.64-.786 0-1.481-.174-2.085-.523-.6-.354-1.068-.867-1.407-1.54-.338-.676-.508-1.494-.508-2.452V21.5h2.828v7.203c0 .76.209 1.365.625 1.813.417.448.964.672 1.641.672.417 0 .82-.102 1.211-.305a2.46 2.46 0 0 0 .961-.906c.255-.407.383-.915.383-1.524Zm9.189 5.29c-.76 0-1.445-.136-2.054-.407a3.349 3.349 0 0 1-1.438-1.219c-.349-.536-.523-1.198-.523-1.984 0-.677.125-1.237.375-1.68.25-.443.591-.797 1.023-1.062a5.155 5.155 0 0 1 1.461-.602c.547-.14 1.112-.242 1.695-.305a66.498 66.498 0 0 0 1.711-.195c.438-.062.756-.156.953-.281.204-.13.305-.33.305-.602v-.047c0-.588-.174-1.044-.523-1.367-.349-.323-.852-.484-1.508-.484-.693 0-1.242.15-1.649.453-.401.302-.671.659-.812 1.07l-2.641-.375c.209-.729.552-1.338 1.032-1.828a4.487 4.487 0 0 1 1.757-1.11c.693-.25 1.459-.374 2.297-.374.578 0 1.154.067 1.727.203.573.135 1.096.36 1.57.672a3.38 3.38 0 0 1 1.141 1.258c.291.53.437 1.195.437 1.992V33.5h-2.719v-1.648h-.093a3.448 3.448 0 0 1-.727.937 3.49 3.49 0 0 1-1.164.695c-.463.172-1.008.258-1.633.258Zm.735-2.079c.567 0 1.06-.112 1.476-.336a2.48 2.48 0 0 0 .961-.906 2.31 2.31 0 0 0 .344-1.227v-1.414c-.089.073-.24.14-.453.203a6.453 6.453 0 0 1-.703.164c-.261.047-.519.089-.774.125l-.664.094a4.948 4.948 0 0 0-1.133.281c-.333.13-.596.313-.789.547-.192.23-.289.526-.289.89 0 .522.19.915.571 1.18.38.266.864.4 1.453.4ZM123.412 17.5v16h-2.828v-16h2.828Zm8.49 16v-16h6c1.23 0 2.261.213 3.094.64.839.428 1.471 1.027 1.899 1.797.432.766.648 1.66.648 2.68 0 1.026-.219 1.917-.656 2.672-.433.75-1.071 1.33-1.914 1.742-.844.407-1.881.61-3.11.61h-4.273v-2.407h3.883c.718 0 1.307-.099 1.765-.297.459-.203.797-.497 1.016-.882.224-.39.336-.87.336-1.438s-.112-1.052-.336-1.453a2.135 2.135 0 0 0-1.024-.922c-.458-.213-1.049-.32-1.773-.32h-2.656V33.5h-2.899Zm8.266-7.25 3.961 7.25h-3.234l-3.891-7.25h3.164Zm11.059 7.484c-1.204 0-2.243-.25-3.118-.75a5.078 5.078 0 0 1-2.007-2.14c-.469-.927-.704-2.018-.704-3.274 0-1.234.235-2.317.704-3.25.474-.937 1.135-1.666 1.984-2.187.849-.526 1.846-.79 2.992-.79.74 0 1.438.12 2.094.36a4.734 4.734 0 0 1 1.75 1.094c.51.495.911 1.125 1.203 1.89.292.76.438 1.667.438 2.72v.866h-9.836v-1.906h7.125a3.055 3.055 0 0 0-.352-1.445 2.551 2.551 0 0 0-.961-1.008c-.406-.245-.88-.367-1.422-.367-.578 0-1.086.14-1.523.422-.438.276-.779.64-1.024 1.093-.239.448-.362.94-.367 1.477v1.664c0 .698.128 1.297.383 1.797.255.495.612.875 1.07 1.14.459.261.995.391 1.61.391.411 0 .783-.057 1.117-.172.333-.12.622-.294.867-.523.245-.23.43-.513.555-.852l2.64.297a4.107 4.107 0 0 1-.953 1.828c-.463.516-1.057.917-1.781 1.203-.724.282-1.552.422-2.484.422Zm11.181.008c-.76 0-1.445-.135-2.054-.406a3.349 3.349 0 0 1-1.438-1.219c-.349-.536-.523-1.198-.523-1.984 0-.677.125-1.237.375-1.68.25-.443.591-.797 1.023-1.062a5.155 5.155 0 0 1 1.461-.602c.547-.14 1.112-.242 1.695-.305a66.498 66.498 0 0 0 1.711-.195c.438-.062.755-.156.953-.281.203-.13.305-.33.305-.602v-.047c0-.588-.174-1.044-.523-1.367-.349-.323-.852-.484-1.508-.484-.693 0-1.242.15-1.649.453-.401.302-.672.659-.812 1.07l-2.641-.375c.209-.729.552-1.338 1.031-1.828a4.498 4.498 0 0 1 1.758-1.11c.693-.25 1.459-.374 2.297-.374.578 0 1.154.067 1.727.203.573.135 1.096.36 1.57.672a3.38 3.38 0 0 1 1.141 1.258c.291.53.437 1.195.437 1.992V33.5h-2.719v-1.648h-.093a3.448 3.448 0 0 1-.727.937 3.49 3.49 0 0 1-1.164.695c-.464.172-1.008.258-1.633.258Zm.735-2.078c.567 0 1.059-.112 1.476-.336a2.48 2.48 0 0 0 .961-.906 2.31 2.31 0 0 0 .344-1.227v-1.414c-.089.073-.24.14-.453.203a6.453 6.453 0 0 1-.703.164c-.261.047-.519.089-.774.125l-.664.094a4.948 4.948 0 0 0-1.133.281c-.333.13-.596.313-.789.547-.193.23-.289.526-.289.89 0 .522.19.915.57 1.18.381.266.865.4 1.454.4Zm13.679 2.07c-1.198 0-2.226-.263-3.086-.789a5.265 5.265 0 0 1-1.976-2.18c-.459-.932-.688-2.005-.688-3.218 0-1.219.235-2.294.703-3.227.469-.937 1.131-1.666 1.985-2.187.859-.526 1.875-.79 3.047-.79.974 0 1.836.18 2.586.54a4.418 4.418 0 0 1 1.804 1.508c.448.646.703 1.4.766 2.265h-2.703a2.59 2.59 0 0 0-.781-1.445c-.407-.39-.951-.586-1.633-.586-.578 0-1.086.156-1.524.469-.437.307-.778.75-1.023 1.328-.24.578-.36 1.27-.36 2.078 0 .818.12 1.52.36 2.11.239.583.575 1.033 1.008 1.35.437.313.95.47 1.539.47.416 0 .789-.078 1.117-.235.333-.161.612-.393.836-.695.224-.302.377-.67.461-1.102h2.703c-.068.85-.318 1.602-.75 2.258a4.438 4.438 0 0 1-1.766 1.532c-.745.364-1.62.546-2.625.546Zm10.291-7.265V33.5h-2.828v-16h2.766v6.04h.14a3.48 3.48 0 0 1 1.305-1.602c.594-.396 1.349-.594 2.266-.594.833 0 1.56.174 2.179.523.62.35 1.099.86 1.438 1.531.344.672.516 1.493.516 2.461V33.5h-2.829v-7.203c0-.807-.208-1.435-.625-1.883-.411-.453-.989-.68-1.734-.68-.5 0-.948.11-1.344.328a2.3 2.3 0 0 0-.922.93c-.218.406-.328.899-.328 1.477Z" fill="#454545"/><defs><linearGradient id="b" x1="39.315" y1="32.123" x2=".618" y2="30.364" gradientUnits="userSpaceOnUse"><stop stop-color="#AE00EB"/><stop offset=".2" stop-color="#1400F8"/><stop offset=".4" stop-color="#00F55C"/><stop offset=".6" stop-color="#EBD200"/><stop offset=".8" stop-color="#F46E00"/><stop offset="1" stop-color="#EF0028"/></linearGradient><linearGradient id="c" x1="41.166" y1="27.359" x2="16.151" y2="2.462" gradientUnits="userSpaceOnUse"><stop stop-color="#CE44FF"/><stop offset=".2" stop-color="#402FFF"/><stop offset=".4" stop-color="#32FF80"/><stop offset=".6" stop-color="#FFE400"/><stop offset=".8" stop-color="#FF8D2F"/><stop offset="1" stop-color="#FF3254"/></linearGradient><linearGradient id="d" x1="38.704" y1="30.614" x2="16.041" y2="7.664" gradientUnits="userSpaceOnUse"><stop stop-color="#CE44FF"/><stop offset=".2" stop-color="#402FFF"/><stop offset=".4" stop-color="#32FF80"/><stop offset=".6" stop-color="#FFE400"/><stop offset=".8" stop-color="#FF8D2F"/><stop offset="1" stop-color="#FF3254"/></linearGradient><linearGradient id="e" x1="42.236" y1="24.768" x2="16.4" y2="-.693" gradientUnits="userSpaceOnUse"><stop stop-color="#CE44FF"/><stop offset=".2" stop-color="#402FFF"/><stop offset=".4" stop-color="#32FF80"/><stop offset=".6" stop-color="#FFE400"/><stop offset=".8" stop-color="#FF8D2F"/><stop offset="1" stop-color="#FF3254"/></linearGradient><linearGradient id="f" x1="35.836" y1="35.531" x2="19.937" y2="17.562" gradientUnits="userSpaceOnUse"><stop stop-color="#CE44FF"/><stop offset=".2" stop-color="#402FFF"/><stop offset=".4" stop-color="#32FF80"/><stop offset=".6" stop-color="#FFE400"/><stop offset=".8" stop-color="#FF8D2F"/><stop offset="1" stop-color="#FF3254"/></linearGradient><linearGradient id="g" x1="41" y1="22.597" x2="14.814" y2="-1.543" gradientUnits="userSpaceOnUse"><stop stop-color="#CE44FF"/><stop offset=".2" stop-color="#402FFF"/><stop offset=".4" stop-color="#32FF80"/><stop offset=".6" stop-color="#FFE400"/><stop offset=".8" stop-color="#FF8D2F"/><stop offset="1" stop-color="#FF3254"/></linearGradient><linearGradient id="h" x1="39.95" y1="20.78" x2="13.746" y2="-1.675" gradientUnits="userSpaceOnUse"><stop stop-color="#CE44FF"/><stop offset=".2" stop-color="#402FFF"/><stop offset=".4" stop-color="#32FF80"/><stop offset=".6" stop-color="#FFE400"/><stop offset=".8" stop-color="#FF8D2F"/><stop offset="1" stop-color="#FF3254"/></linearGradient><linearGradient id="i" x1="38.403" y1="19.212" x2="12.782" y2="-.637" gradientUnits="userSpaceOnUse"><stop stop-color="#CE44FF"/><stop offset=".2" stop-color="#402FFF"/><stop offset=".4" stop-color="#32FF80"/><stop offset=".6" stop-color="#FFE400"/><stop offset=".8" stop-color="#FF8D2F"/><stop offset="1" stop-color="#FF3254"/></linearGradient><linearGradient id="j" x1="32.631" y1="40.952" x2="24.23" y2="30.268" gradientUnits="userSpaceOnUse"><stop stop-color="#CE44FF"/><stop offset=".2" stop-color="#402FFF"/><stop offset=".4" stop-color="#32FF80"/><stop offset=".6" stop-color="#FFE400"/><stop offset=".8" stop-color="#FF8D2F"/><stop offset="1" stop-color="#FF3254"/></linearGradient><linearGradient id="k" x1="31.416" y1="17.352" x2="10.958" y2="5.123" gradientUnits="userSpaceOnUse"><stop stop-color="#CE44FF"/><stop offset=".2" stop-color="#402FFF"/><stop offset=".4" stop-color="#32FF80"/><stop offset=".6" stop-color="#FFE400"/><stop offset=".8" stop-color="#FF8D2F"/><stop offset="1" stop-color="#FF3254"/></linearGradient><linearGradient id="l" x1="28.06" y1="44.23" x2="26.306" y2="41.267" gradientUnits="userSpaceOnUse"><stop stop-color="#CE44FF"/><stop offset=".2" stop-color="#402FFF"/><stop offset=".4" stop-color="#32FF80"/><stop offset=".6" stop-color="#FFE400"/><stop offset=".8" stop-color="#FF8D2F"/><stop offset="1" stop-color="#FF3254"/></linearGradient><linearGradient id="m" x1="14.328" y1="7.518" x2="14.267" y2="7.432" gradientUnits="userSpaceOnUse"><stop stop-color="#CE44FF"/><stop offset=".2" stop-color="#402FFF"/><stop offset=".4" stop-color="#32FF80"/><stop offset=".6" stop-color="#FFE400"/><stop offset=".8" stop-color="#FF8D2F"/><stop offset="1" stop-color="#FF3254"/></linearGradient><linearGradient id="n" x1="6.11" y1="28.277" x2="6.002" y2="28.222" gradientUnits="userSpaceOnUse"><stop stop-color="#CE44FF"/><stop offset=".2" stop-color="#402FFF"/><stop offset=".4" stop-color="#32FF80"/><stop offset=".6" stop-color="#FFE400"/><stop offset=".8" stop-color="#FF8D2F"/><stop offset="1" stop-color="#FF3254"/></linearGradient><linearGradient id="o" x1="5.992" y1="28.147" x2="5.928" y2="28.106" gradientUnits="userSpaceOnUse"><stop stop-color="#CE44FF"/><stop offset=".2" stop-color="#402FFF"/><stop offset=".4" stop-color="#32FF80"/><stop offset=".6" stop-color="#FFE400"/><stop offset=".8" stop-color="#FF8D2F"/><stop offset="1" stop-color="#FF3254"/></linearGradient><linearGradient id="p" x1="4.384" y1="26.078" x2="4.319" y2="26.039" gradientUnits="userSpaceOnUse"><stop stop-color="#CE44FF"/><stop offset=".2" stop-color="#402FFF"/><stop offset=".4" stop-color="#32FF80"/><stop offset=".6" stop-color="#FFE400"/><stop offset=".8" stop-color="#FF8D2F"/><stop offset="1" stop-color="#FF3254"/></linearGradient><linearGradient id="q" x1=".436" y1="18.736" x2=".372" y2="18.709" gradientUnits="userSpaceOnUse"><stop stop-color="#CE44FF"/><stop offset=".2" stop-color="#402FFF"/><stop offset=".4" stop-color="#32FF80"/><stop offset=".6" stop-color="#FFE400"/><stop offset=".8" stop-color="#FF8D2F"/><stop offset="1" stop-color="#FF3254"/></linearGradient><linearGradient id="r" x1="6.193" y1="28.396" x2="6.13" y2="28.359" gradientUnits="userSpaceOnUse"><stop stop-color="#CE44FF"/><stop offset=".2" stop-color="#402FFF"/><stop offset=".4" stop-color="#32FF80"/><stop offset=".6" stop-color="#FFE400"/><stop offset=".8" stop-color="#FF8D2F"/><stop offset="1" stop-color="#FF3254"/></linearGradient><linearGradient id="s" x1="6.277" y1="28.496" x2="6.209" y2="28.457" gradientUnits="userSpaceOnUse"><stop stop-color="#CE44FF"/><stop offset=".2" stop-color="#402FFF"/><stop offset=".4" stop-color="#32FF80"/><stop offset=".6" stop-color="#FFE400"/><stop offset=".8" stop-color="#FF8D2F"/><stop offset="1" stop-color="#FF3254"/></linearGradient><linearGradient id="t" x1="14.424" y1="36.795" x2="14.38" y2="36.753" gradientUnits="userSpaceOnUse"><stop stop-color="#CE44FF"/><stop offset=".2" stop-color="#402FFF"/><stop offset=".4" stop-color="#32FF80"/><stop offset=".6" stop-color="#FFE400"/><stop offset=".8" stop-color="#FF8D2F"/><stop offset="1" stop-color="#FF3254"/></linearGradient><linearGradient id="u" x1="13.81" y1="36.195" x2="13.757" y2="36.143" gradientUnits="userSpaceOnUse"><stop stop-color="#CE44FF"/><stop offset=".2" stop-color="#402FFF"/><stop offset=".4" stop-color="#32FF80"/><stop offset=".6" stop-color="#FFE400"/><stop offset=".8" stop-color="#FF8D2F"/><stop offset="1" stop-color="#FF3254"/></linearGradient><linearGradient id="v" x1="33.021" y1="23.457" x2="32.958" y2="23.386" gradientUnits="userSpaceOnUse"><stop stop-color="#CE44FF"/><stop offset=".2" stop-color="#402FFF"/><stop offset=".4" stop-color="#32FF80"/><stop offset=".6" stop-color="#FFE400"/><stop offset=".8" stop-color="#FF8D2F"/><stop offset="1" stop-color="#FF3254"/></linearGradient><clipPath id="a"><path fill="#fff" d="M0 0h50v50H0z"/></clipPath></defs></svg>