<svg viewBox="0 0 314 81" xmlns="http://www.w3.org/2000/svg"><path d="M0 58.242v4.998h12.188v-7.186h.551c.561 1.247 1.374 2.483 2.438 3.71 1.064 1.207 2.427 2.21 4.091 3.009 1.683.798 3.724 1.197 6.123 1.197 3.386 0 6.442-.876 9.17-2.628 2.747-1.773 4.914-4.372 6.5-7.8 1.606-3.446 2.408-7.672 2.408-12.677 0-5.14-.822-9.415-2.466-12.823-.17-.355-.347-.701-.529-1.038-2.773 1.588-5.282 3.623-7.609 5.851a71.268 71.268 0 0 0-2.621 2.655c.402 1.591.602 3.356.602 5.297 0 2.61-.367 4.917-1.102 6.922-.716 1.987-1.77 3.545-3.163 4.674-1.393 1.11-3.096 1.665-5.107 1.665-1.993 0-3.686-.545-5.079-1.636a8.986 8.986 0 0 1-1.454-1.467c-2.332 1.784-5.066 3.534-8.323 4.988A40.688 40.688 0 0 1 0 58.24Zm0-4.731a35.879 35.879 0 0 0 4.777-1.735c3.197-1.428 5.834-3.176 8.098-4.981-.516-1.757-.774-3.753-.774-5.988 0-2.668.367-4.986 1.102-6.952.736-1.967 1.79-3.486 3.163-4.557 1.393-1.071 3.096-1.607 5.108-1.607 2.03 0 3.743.555 5.136 1.665a8.996 8.996 0 0 1 1.617 1.68c.491-.5.994-.999 1.509-1.491 2.391-2.291 5.075-4.502 8.121-6.297a15.691 15.691 0 0 0-3.441-2.889c-2.747-1.713-5.746-2.57-8.996-2.57-2.496 0-4.585.428-6.268 1.285-1.664.838-3.018 1.89-4.063 3.155-1.025 1.246-1.808 2.473-2.35 3.68h-.377V3.419H0V53.51ZM51.718 23.78v23.16c.02 3.506.658 6.515 1.915 9.027 1.277 2.512 3.047 4.45 5.31 5.813 2.264 1.363 4.885 2.044 7.864 2.044 3.347 0 6.181-.798 8.503-2.395 2.34-1.597 4.014-3.71 5.02-6.339h.464v8.15h11.869v-7.219c-5.803-.045-10.332-2.494-14.081-5.919l-.045-.04a7.794 7.794 0 0 1-2.56 2.224A8.845 8.845 0 0 1 71.8 53.31c-2.341 0-4.208-.77-5.601-2.308-1.393-1.538-2.099-3.632-2.118-6.28V31.5c-1.403-1.721-2.837-3.247-4.375-4.49-2.356-1.901-4.916-3.104-7.987-3.23Zm12.362 1.008c-.5-.47-1.01-.918-1.535-1.341-3.054-2.466-6.591-4.112-10.827-4.24v-.834H64.08v6.415Z"/><path d="M80.257 45.375c.45.467.907.916 1.375 1.343 3.146 2.873 6.634 4.689 11.03 4.733V18.373h-12.36v25.764c.004.427-.01.84-.044 1.238Zm22.294 8.777v9.088h12.362V47.157c-1.187.696-2.35 1.433-3.533 2.18l-.001.002c-.453.286-.908.574-1.369.862-2.31 1.447-4.719 2.873-7.459 3.951Zm12.362-12.216c-2.152 1.122-4.094 2.354-5.937 3.523-.46.292-.914.58-1.363.862-1.695 1.06-3.343 2.042-5.062 2.857V18.373h12.362v23.563Zm9.902 1.187V63.24h12.362V42.27c-3.879-.293-7.95-.089-12.362.853Zm12.362-5.433a47.424 47.424 0 0 0-12.362.77V3.419h12.362V37.69Zm8.334 5.941c.244 3.815 1.009 7.119 2.294 9.911 1.606 3.428 3.772 6.027 6.5 7.8 2.747 1.752 5.813 2.628 9.199 2.628 2.399 0 4.43-.399 6.094-1.197 1.683-.799 3.047-1.802 4.091-3.009 1.064-1.227 1.886-2.463 2.467-3.71h.522v7.186h12.188v-9.603c-5.841.327-11.136-.331-16.084-1.465a7.67 7.67 0 0 1-.312.26c-1.373 1.09-3.056 1.636-5.049 1.636-2.031 0-3.743-.555-5.136-1.665-1.308-1.075-2.327-2.54-3.056-4.392l-.924-.328-1.744-.617c-3.705-1.305-7.336-2.532-11.05-3.435Zm12.609-.857-.06-.021c-4.078-1.436-8.223-2.842-12.594-3.825.184-4.287.993-7.916 2.426-10.886 1.644-3.428 3.83-5.988 6.558-7.683 2.747-1.713 5.755-2.57 9.025-2.57 2.495 0 4.575.428 6.239 1.285 1.683.838 3.037 1.89 4.062 3.155 1.045 1.246 1.838 2.473 2.38 3.68h.377V3.419h12.333V49.06c-4.772.293-9.149-.13-13.321-.965.04-.101.079-.204.117-.307.755-1.986 1.132-4.313 1.132-6.981s-.367-4.986-1.103-6.952c-.735-1.967-1.799-3.486-3.192-4.557-1.392-1.071-3.085-1.607-5.078-1.607-2.031 0-3.743.555-5.136 1.665-1.393 1.11-2.447 2.649-3.163 4.615-.716 1.967-1.074 4.246-1.074 6.836 0 .676.024 1.332.072 1.967Zm40.909 9.351V63.24h12.362V47.662c-3.798 1.8-7.862 3.37-12.362 4.463Zm12.362-9.548c-3.859 1.954-7.894 3.653-12.362 4.837v-29.04h12.362v24.203Zm9.903-.254V63.24h12.362V37.301c.007-.706.059-1.374.157-2.004-3.143 1.554-6.185 3.309-9.269 5.119l-1.136.667c-.701.412-1.405.826-2.114 1.24Zm26.553-11.949.086.092c1.412 1.539 2.108 3.68 2.089 6.426V63.24h12.362V34.673c0-1.778-.166-3.43-.498-4.954a49.241 49.241 0 0 0-5.778-.218 48.25 48.25 0 0 0-8.261.873Zm12.263-5.37a53.574 53.574 0 0 0-4.095-.071c-14.191.293-24.193 5.923-33.757 11.534l-.964.566v-18.66h11.781v7.916h.522c.987-2.61 2.641-4.673 4.963-6.192 2.321-1.539 5.136-2.308 8.444-2.308 3.095 0 5.794.682 8.096 2.045 2.094 1.24 3.764 2.963 5.01 5.17Zm11.475 6.606c-.741 2.659-1.112 5.695-1.112 9.11 0 4.965.802 9.074 2.408 12.326 1.625 3.232 3.801 5.637 6.529 7.215 2.747 1.558 5.794 2.336 9.141 2.336 2.36 0 4.391-.35 6.094-1.051 1.702-.701 3.095-1.607 4.178-2.717 1.084-1.11 1.896-2.288 2.438-3.534h.522v8.208c0 3.077-.88 5.268-2.64 6.572-1.741 1.325-3.957 1.987-6.646 1.987-1.799 0-3.327-.244-4.584-.73-1.239-.468-2.235-1.091-2.989-1.87-.755-.779-1.306-1.616-1.654-2.512l-11.434 1.548c.503 2.356 1.596 4.479 3.279 6.368 1.683 1.889 3.947 3.379 6.791 4.469 2.863 1.11 6.297 1.665 10.301 1.665 4.256 0 8.019-.652 11.288-1.957 3.289-1.285 5.862-3.213 7.719-5.784 1.857-2.57 2.786-5.764 2.786-9.58V42.6c-4.364.556-8.388.328-12.206-.379-.122 1.974-.484 3.712-1.084 5.216-.736 1.87-1.8 3.31-3.192 4.324-1.374.993-3.057 1.49-5.05 1.49-2.031 0-3.743-.507-5.136-1.52-1.373-1.032-2.428-2.483-3.163-4.352-.716-1.889-1.074-4.128-1.074-6.718 0-1.681.156-3.231.467-4.65-3.896-1.618-7.808-3.2-11.977-4.4Zm13.627.138c-3.755-1.563-7.689-3.154-11.952-4.406 1.604-3.088 3.683-5.425 6.237-7.012 2.747-1.694 5.756-2.541 9.025-2.541 2.495 0 4.585.428 6.268 1.285 1.683.838 3.037 1.89 4.062 3.155 1.045 1.246 1.848 2.473 2.409 3.68h.464v-7.536H314V37.99c-4.414.637-8.453.366-12.353-.453-.179-1.355-.482-2.592-.908-3.71-.735-1.948-1.8-3.457-3.192-4.528-1.393-1.071-3.086-1.607-5.079-1.607-2.031 0-3.743.555-5.136 1.665a9.06 9.06 0 0 0-2.12 2.392ZM104.031 10.75c1.315 1.226 2.892 1.84 4.73 1.84 1.837 0 3.404-.614 4.701-1.84 1.315-1.247 1.973-2.737 1.973-4.47 0-1.713-.658-3.184-1.973-4.41C112.165.622 110.598 0 108.761 0c-1.838 0-3.415.623-4.73 1.87-1.296 1.226-1.945 2.697-1.945 4.41 0 1.733.649 3.223 1.945 4.47Zm96.478 0c1.316 1.226 2.893 1.84 4.73 1.84 1.838 0 3.405-.614 4.701-1.84 1.316-1.247 1.974-2.737 1.974-4.47 0-1.713-.658-3.184-1.974-4.41C208.644.622 207.077 0 205.239 0c-1.837 0-3.414.623-4.73 1.87-1.296 1.226-1.944 2.697-1.944 4.41 0 1.733.648 3.223 1.944 4.47Z"/></svg>