<svg viewBox="0 0 314 78" xmlns="http://www.w3.org/2000/svg"><path d="M0 53.675v7.934h39.707v-10.16H12.423v-2.711a40.019 40.019 0 0 1-5.592 2.825A40.703 40.703 0 0 1 0 53.675Z" fill="url(#a)"/><path d="M0 49.105a35.917 35.917 0 0 0 5.117-1.657c2.819-1.155 5.213-2.564 7.306-4.047v-5.867h6.98c1.219-1.172 2.507-2.546 3.931-4.066l.005-.004.55-.588c1.65-1.757 3.453-3.656 5.426-5.5H12.423V13.487h27.17V3.33H0v45.776Z" fill="url(#b)"/><path d="M36.185 27.375a48.82 48.82 0 0 0-2.828 2.357c-2.224 1.994-4.253 4.122-6.182 6.178l-.564.601-.005.006-.956 1.017h11.906V27.376h-1.371Z" fill="url(#c)"/><path d="M54.135 21.648c2.2.497 4.116 1.578 5.898 3.073 1.386 1.163 2.677 2.562 3.932 4.132-1.225 1.057-2.165 2.472-2.819 4.242-.708 1.916-1.062 4.136-1.062 6.66 0 2.541.354 4.79 1.062 6.743.727 1.935 1.77 3.453 3.127 4.553 1.377 1.082 3.07 1.622 5.078 1.622 1.97 0 3.635-.53 4.993-1.593 1.283-1.008 2.284-2.387 3.003-4.137.25.253.502.5.758.743 3.336 3.162 7.349 5.534 12.448 6.034V78H78.36V54.608h-.373c-.574 1.215-1.386 2.42-2.438 3.614-1.033 1.177-2.382 2.154-4.046 2.932-1.645.777-3.653 1.166-6.025 1.166-3.347 0-6.379-.853-9.095-2.56-2.696-1.727-4.839-4.26-6.426-7.599-1.569-3.358-2.353-7.474-2.353-12.35 0-5.008.813-9.172 2.439-12.492 1.113-2.286 2.477-4.177 4.092-5.671Z" fill="url(#d)"/><path d="M90.553 49.24V17.9h-12.05v7.341h-.516c-.535-1.176-1.32-2.371-2.352-3.585-1.014-1.233-2.353-2.258-4.017-3.074-1.645-.835-3.701-1.252-6.168-1.252-2.331 0-4.527.434-6.59 1.302 1.46.718 2.81 1.632 4.07 2.689 1.939 1.625 3.678 3.603 5.295 5.716.364-.04.74-.06 1.126-.06 1.97 0 3.644.522 5.021 1.565 1.377 1.044 2.43 2.523 3.156 4.44.727 1.916 1.09 4.173 1.09 6.772 0 .638-.022 1.256-.067 1.855a33.001 33.001 0 0 0 2.655 2.858c2.694 2.553 5.675 4.303 9.347 4.773Z" fill="url(#e)"/><path d="M101.359 52.354c.252.761.552 1.484.9 2.17 1.262 2.446 3.013 4.334 5.25 5.662 2.238 1.328 4.83 1.992 7.775 1.992 3.309 0 6.111-.778 8.407-2.333 2.314-1.556 3.968-3.614 4.963-6.175h.459v7.939h11.734V42.24c-3.863-.773-7.877-1.125-12.222-.79v1.548c.02 1.954-.373 3.595-1.176 4.923-.784 1.328-1.817 2.334-3.098 3.017a8.853 8.853 0 0 1-4.132.996c-2.314 0-4.16-.75-5.537-2.248-.831-.905-1.415-2.006-1.751-3.305-.797.453-1.589.919-2.39 1.39-.455.268-.913.537-1.376.806-2.413 1.405-4.933 2.786-7.806 3.777Z" fill="url(#f)"/><path d="M112.588 41.477c-1.525.805-2.952 1.647-4.325 2.456-.462.273-.918.542-1.369.805-2.142 1.246-4.207 2.372-6.425 3.201a25.813 25.813 0 0 1-.103-2.209V17.9h12.222v23.577Z" fill="url(#g)"/><path d="M128.625 36.987c4.354-.303 8.392.018 12.222.719V17.899h-12.222v19.088Z" fill="url(#h)"/><path d="M149.326 44.568c-.512 1.39-.768 3-.768 4.833 0 2.884.631 5.293 1.893 7.228 1.282 1.916 3.022 3.367 5.222 4.354 2.2.967 4.705 1.451 7.517 1.451 2.18 0 4.103-.284 5.767-.854 1.664-.588 3.089-1.394 4.274-2.418a12.356 12.356 0 0 0 2.841-3.614h.344v6.06h11.591v-7.727c-5.656.27-10.774-.37-15.541-1.478a9.55 9.55 0 0 1-1.013.612c-1.377.702-2.965 1.053-4.763 1.053-1.874 0-3.424-.427-4.648-1.28-1.205-.873-1.807-2.135-1.807-3.785 0-.144.005-.284.014-.421a515.74 515.74 0 0 1-3.287-1.235l-1.709-.645a176.779 176.779 0 0 0-5.927-2.134Z" fill="url(#i)"/><path d="M162.743 44.748a404.556 404.556 0 0 1-4.329-1.617l-1.569-.592a204.868 204.868 0 0 0-5.021-1.828c.53-.526 1.114-.997 1.755-1.412 1.549-1.006 3.309-1.764 5.279-2.277a40.531 40.531 0 0 1 6.254-1.081c2.563-.266 4.629-.512 6.197-.74 1.569-.247 2.707-.607 3.414-1.081.708-.475 1.062-1.176 1.062-2.106v-.17c0-1.803-.574-3.198-1.721-4.184-1.129-.986-2.736-1.48-4.82-1.48-2.2 0-3.95.484-5.251 1.451-1.3.95-2.161 2.144-2.582 3.586l-11.304-.91c.574-2.656 1.702-4.952 3.386-6.887 1.683-1.954 3.854-3.453 6.512-4.496 2.678-1.063 5.777-1.594 9.296-1.594 2.448 0 4.791.285 7.029.854 2.257.569 4.256 1.451 5.996 2.646a12.887 12.887 0 0 1 4.16 4.61c1.014 1.86 1.521 4.089 1.521 6.688v17.295c-4.496.235-8.618-.154-12.532-.926.264-.783.396-1.62.396-2.51v-4.64c-.383.247-.909.475-1.578.684-.65.19-1.387.37-2.209.54-.823.152-1.645.294-2.467.427-.823.114-1.569.218-2.238.313-1.435.209-2.688.54-3.759.996a7.46 7.46 0 0 0-.877.44Z" fill="url(#j)"/><path d="M197.489 52.62v8.989h12.222V48.547c-3.77 1.66-7.791 3.098-12.222 4.072Z" fill="url(#k)"/><path d="M209.711 43.647c-3.832 1.799-7.825 3.351-12.222 4.405V3.329h12.222v40.318Z" fill="url(#l)"/><path d="M219.502 43.64v17.97h12.222V37.28c-3.082 1.413-6.075 3.014-9.11 4.666l-1.117.61-.023.012c-.654.357-1.311.715-1.972 1.073Z" fill="url(#m)"/><path d="M231.724 32.4c-3.948 1.69-7.639 3.667-11.269 5.642l-.607.33-.346.19V17.899h12.222v14.5Z" fill="url(#n)"/><path d="M244.441 33.02v16.75c-.02 2.865.583 5.237 1.807 7.115 1.224 1.878 2.936 3.263 5.136 4.155 2.218.891 4.8 1.28 7.746 1.166 1.587-.056 2.936-.218 4.045-.483 1.11-.247 1.97-.465 2.582-.655l-1.922-9.02c-.306.056-.746.142-1.32.255-.573.095-1.147.143-1.721.143-.822 0-1.549-.123-2.18-.37-.613-.247-1.091-.674-1.435-1.28-.344-.627-.516-1.5-.516-2.619V32.195a50.014 50.014 0 0 0-2.575-.08 48.1 48.1 0 0 0-9.647.906Z" fill="url(#o)"/><path d="M256.663 27.737a53.93 53.93 0 0 0-2.552-.074 52.737 52.737 0 0 0-9.67.828v-1.485h-6.025v-9.107h6.025V7.427h12.222V17.9h8.291v9.107h-8.291v.73Z" fill="url(#p)"/><path d="m276.148 37.048 9.076 25.813-.718 1.85c-.535 1.366-1.233 2.333-2.094 2.902-.842.57-1.846.835-3.012.797-1.148-.038-2.439-.275-3.874-.711l-2.754 9.049c.88.36 1.989.654 3.328.882 1.358.247 2.812.37 4.361.37 3.022 0 5.604-.484 7.747-1.451 2.142-.949 3.911-2.305 5.307-4.07 1.416-1.745 2.534-3.794 3.357-6.146l7.051-19.938c-3.669-.307-7.102-1.116-10.408-2.195l-1.664 5.798h-.459l-2.081-7.322a129.904 129.904 0 0 1-3.729-1.545 440.584 440.584 0 0 1-3.419-1.495l-.005-.002c-1.993-.879-3.985-1.756-6.01-2.586Z" fill="url(#q)"/><path d="m287.758 37.214-.39-.167c-1.104-.476-2.22-.969-3.351-1.468-3.121-1.38-6.361-2.812-9.817-4.072L269.415 17.9h12.854l5.489 19.315Z" fill="url(#r)"/><path d="M294.745 39.914c3.457 1.14 6.967 1.937 10.719 2.122L314 17.899h-12.939l-6.316 22.015Z" fill="url(#s)"/><path d="M220.965 10.472c1.3 1.195 2.859 1.793 4.676 1.793 1.817 0 3.367-.598 4.648-1.793 1.301-1.214 1.951-2.665 1.951-4.354 0-1.67-.65-3.102-1.951-4.297C229.008.607 227.458 0 225.641 0c-1.817 0-3.376.607-4.676 1.821-1.282 1.195-1.922 2.628-1.922 4.297 0 1.689.64 3.14 1.922 4.354Z" fill="url(#t)"/><defs><linearGradient id="a" x1="305.217" y1="38.552" x2="183.218" y2="202.175" gradientUnits="userSpaceOnUse"><stop stop-color="#AE00EB"/><stop offset=".244" stop-color="#2A19F4"/><stop offset=".4" stop-color="#00E456"/><stop offset=".6" stop-color="#CEB800"/><stop offset=".8" stop-color="#EF6C00"/><stop offset="1" stop-color="#F80029"/></linearGradient><linearGradient id="b" x1="305.217" y1="38.552" x2="183.218" y2="202.175" gradientUnits="userSpaceOnUse"><stop stop-color="#AE00EB"/><stop offset=".244" stop-color="#2A19F4"/><stop offset=".4" stop-color="#00E456"/><stop offset=".6" stop-color="#CEB800"/><stop offset=".8" stop-color="#EF6C00"/><stop offset="1" stop-color="#F80029"/></linearGradient><linearGradient id="c" x1="305.217" y1="38.552" x2="183.218" y2="202.175" gradientUnits="userSpaceOnUse"><stop stop-color="#AE00EB"/><stop offset=".244" stop-color="#2A19F4"/><stop offset=".4" stop-color="#00E456"/><stop offset=".6" stop-color="#CEB800"/><stop offset=".8" stop-color="#EF6C00"/><stop offset="1" stop-color="#F80029"/></linearGradient><linearGradient id="d" x1="305.217" y1="38.552" x2="183.218" y2="202.175" gradientUnits="userSpaceOnUse"><stop stop-color="#AE00EB"/><stop offset=".244" stop-color="#2A19F4"/><stop offset=".4" stop-color="#00E456"/><stop offset=".6" stop-color="#CEB800"/><stop offset=".8" stop-color="#EF6C00"/><stop offset="1" stop-color="#F80029"/></linearGradient><linearGradient id="e" x1="305.217" y1="38.552" x2="183.218" y2="202.175" gradientUnits="userSpaceOnUse"><stop stop-color="#AE00EB"/><stop offset=".244" stop-color="#2A19F4"/><stop offset=".4" stop-color="#00E456"/><stop offset=".6" stop-color="#CEB800"/><stop offset=".8" stop-color="#EF6C00"/><stop offset="1" stop-color="#F80029"/></linearGradient><linearGradient id="f" x1="305.217" y1="38.552" x2="183.218" y2="202.175" gradientUnits="userSpaceOnUse"><stop stop-color="#AE00EB"/><stop offset=".244" stop-color="#2A19F4"/><stop offset=".4" stop-color="#00E456"/><stop offset=".6" stop-color="#CEB800"/><stop offset=".8" stop-color="#EF6C00"/><stop offset="1" stop-color="#F80029"/></linearGradient><linearGradient id="g" x1="305.217" y1="38.552" x2="183.218" y2="202.175" gradientUnits="userSpaceOnUse"><stop stop-color="#AE00EB"/><stop offset=".244" stop-color="#2A19F4"/><stop offset=".4" stop-color="#00E456"/><stop offset=".6" stop-color="#CEB800"/><stop offset=".8" stop-color="#EF6C00"/><stop offset="1" stop-color="#F80029"/></linearGradient><linearGradient id="h" x1="305.217" y1="38.552" x2="183.218" y2="202.175" gradientUnits="userSpaceOnUse"><stop stop-color="#AE00EB"/><stop offset=".244" stop-color="#2A19F4"/><stop offset=".4" stop-color="#00E456"/><stop offset=".6" stop-color="#CEB800"/><stop offset=".8" stop-color="#EF6C00"/><stop offset="1" stop-color="#F80029"/></linearGradient><linearGradient id="i" x1="305.217" y1="38.552" x2="183.218" y2="202.175" gradientUnits="userSpaceOnUse"><stop stop-color="#AE00EB"/><stop offset=".244" stop-color="#2A19F4"/><stop offset=".4" stop-color="#00E456"/><stop offset=".6" stop-color="#CEB800"/><stop offset=".8" stop-color="#EF6C00"/><stop offset="1" stop-color="#F80029"/></linearGradient><linearGradient id="j" x1="305.217" y1="38.552" x2="183.218" y2="202.175" gradientUnits="userSpaceOnUse"><stop stop-color="#AE00EB"/><stop offset=".244" stop-color="#2A19F4"/><stop offset=".4" stop-color="#00E456"/><stop offset=".6" stop-color="#CEB800"/><stop offset=".8" stop-color="#EF6C00"/><stop offset="1" stop-color="#F80029"/></linearGradient><linearGradient id="k" x1="305.217" y1="38.552" x2="183.218" y2="202.175" gradientUnits="userSpaceOnUse"><stop stop-color="#AE00EB"/><stop offset=".244" stop-color="#2A19F4"/><stop offset=".4" stop-color="#00E456"/><stop offset=".6" stop-color="#CEB800"/><stop offset=".8" stop-color="#EF6C00"/><stop offset="1" stop-color="#F80029"/></linearGradient><linearGradient id="l" x1="305.217" y1="38.552" x2="183.218" y2="202.175" gradientUnits="userSpaceOnUse"><stop stop-color="#AE00EB"/><stop offset=".244" stop-color="#2A19F4"/><stop offset=".4" stop-color="#00E456"/><stop offset=".6" stop-color="#CEB800"/><stop offset=".8" stop-color="#EF6C00"/><stop offset="1" stop-color="#F80029"/></linearGradient><linearGradient id="m" x1="305.217" y1="38.552" x2="183.218" y2="202.175" gradientUnits="userSpaceOnUse"><stop stop-color="#AE00EB"/><stop offset=".244" stop-color="#2A19F4"/><stop offset=".4" stop-color="#00E456"/><stop offset=".6" stop-color="#CEB800"/><stop offset=".8" stop-color="#EF6C00"/><stop offset="1" stop-color="#F80029"/></linearGradient><linearGradient id="n" x1="305.217" y1="38.552" x2="183.218" y2="202.175" gradientUnits="userSpaceOnUse"><stop stop-color="#AE00EB"/><stop offset=".244" stop-color="#2A19F4"/><stop offset=".4" stop-color="#00E456"/><stop offset=".6" stop-color="#CEB800"/><stop offset=".8" stop-color="#EF6C00"/><stop offset="1" stop-color="#F80029"/></linearGradient><linearGradient id="o" x1="305.217" y1="38.552" x2="183.218" y2="202.175" gradientUnits="userSpaceOnUse"><stop stop-color="#AE00EB"/><stop offset=".244" stop-color="#2A19F4"/><stop offset=".4" stop-color="#00E456"/><stop offset=".6" stop-color="#CEB800"/><stop offset=".8" stop-color="#EF6C00"/><stop offset="1" stop-color="#F80029"/></linearGradient><linearGradient id="p" x1="305.217" y1="38.552" x2="183.218" y2="202.175" gradientUnits="userSpaceOnUse"><stop stop-color="#AE00EB"/><stop offset=".244" stop-color="#2A19F4"/><stop offset=".4" stop-color="#00E456"/><stop offset=".6" stop-color="#CEB800"/><stop offset=".8" stop-color="#EF6C00"/><stop offset="1" stop-color="#F80029"/></linearGradient><linearGradient id="q" x1="305.217" y1="38.552" x2="183.218" y2="202.175" gradientUnits="userSpaceOnUse"><stop stop-color="#AE00EB"/><stop offset=".244" stop-color="#2A19F4"/><stop offset=".4" stop-color="#00E456"/><stop offset=".6" stop-color="#CEB800"/><stop offset=".8" stop-color="#EF6C00"/><stop offset="1" stop-color="#F80029"/></linearGradient><linearGradient id="r" x1="305.217" y1="38.552" x2="183.218" y2="202.175" gradientUnits="userSpaceOnUse"><stop stop-color="#AE00EB"/><stop offset=".244" stop-color="#2A19F4"/><stop offset=".4" stop-color="#00E456"/><stop offset=".6" stop-color="#CEB800"/><stop offset=".8" stop-color="#EF6C00"/><stop offset="1" stop-color="#F80029"/></linearGradient><linearGradient id="s" x1="305.217" y1="38.552" x2="183.218" y2="202.175" gradientUnits="userSpaceOnUse"><stop stop-color="#AE00EB"/><stop offset=".244" stop-color="#2A19F4"/><stop offset=".4" stop-color="#00E456"/><stop offset=".6" stop-color="#CEB800"/><stop offset=".8" stop-color="#EF6C00"/><stop offset="1" stop-color="#F80029"/></linearGradient><linearGradient id="t" x1="305.217" y1="38.552" x2="183.218" y2="202.175" gradientUnits="userSpaceOnUse"><stop stop-color="#AE00EB"/><stop offset=".244" stop-color="#2A19F4"/><stop offset=".4" stop-color="#00E456"/><stop offset=".6" stop-color="#CEB800"/><stop offset=".8" stop-color="#EF6C00"/><stop offset="1" stop-color="#F80029"/></linearGradient></defs></svg>