<svg viewBox="0 0 195 204" xmlns="http://www.w3.org/2000/svg"><path d="M108.604 119.306c-.606-3.408-3.745-5.411-6.874-6.213-3.571-.915-7.378-.802-11.013-.389-7.319.831-14.506 3.077-21.933 2.728a36.914 36.914 0 0 1-18.153-5.848 35.768 35.768 0 0 1-12.745-14.3 37.059 37.059 0 0 1-3.715-18.948c.06-.812.153-1.621.267-2.428.082-.577.957-.331.876.242a35.859 35.859 0 0 0 2.641 19.122 34.95 34.95 0 0 0 12.032 14.789 36.107 36.107 0 0 0 17.894 6.408c7.333.536 14.458-1.574 21.664-2.53 3.64-.483 7.351-.662 10.985-.03 3.218.561 6.521 2.002 8.173 4.987.376.675.639 1.408.777 2.168.101.573-.774.818-.876.242Z" fill="#3F3D56"/><path d="M37.85 75.78C16.945 75.78 0 58.816 0 37.89 0 16.964 16.946 0 37.85 0c20.903 0 37.849 16.964 37.849 37.89 0 20.926-16.946 37.89-37.85 37.89Z" fill="#FEE"/><path d="M52.08 40.012c-5.35 0-9.689-4.343-9.689-9.7 0-5.357 4.338-9.7 9.69-9.7 5.351 0 9.69 4.343 9.69 9.7 0 5.357-4.339 9.7-9.69 9.7Zm-3.035 9.7a5.77 5.77 0 0 1-1.788 3.873 5.757 5.757 0 0 1-3.957 1.583H27.554a5.757 5.757 0 0 1-3.957-1.583 5.77 5.77 0 0 1-1.788-3.873h27.236Z" fill="#fff"/><path d="M55.714 38.648a5.15 5.15 0 0 1-5.147-5.153 5.15 5.15 0 0 1 5.147-5.153 5.15 5.15 0 0 1 5.148 5.153 5.15 5.15 0 0 1-5.148 5.153Z" fill="#3F3D56"/><path d="M53.898 32.586a1.212 1.212 0 1 1 0-2.424 1.212 1.212 0 0 1 0 2.424ZM20.59 40.163c-5.351 0-9.69-4.342-9.69-9.7 0-5.356 4.339-9.7 9.69-9.7 5.351 0 9.69 4.344 9.69 9.7 0 5.358-4.339 9.7-9.69 9.7Z" fill="#fff"/><path d="M24.224 38.648a5.15 5.15 0 0 1-5.148-5.153 5.15 5.15 0 0 1 5.148-5.153 5.15 5.15 0 0 1 5.147 5.153 5.15 5.15 0 0 1-5.147 5.153Z" fill="#3F3D56"/><path d="M22.407 32.586a1.212 1.212 0 1 1 .001-2.424 1.212 1.212 0 0 1-.001 2.424Z" fill="#fff"/><path d="M37.244 44.862a3.635 3.635 0 0 1-3.634-3.638 3.636 3.636 0 0 1 3.634-3.637 3.636 3.636 0 0 1 3.633 3.637 3.635 3.635 0 0 1-3.633 3.638Z" fill="#3F3D56"/><path d="M31.794 73.658h6.661v5.153h-6.661v-5.153Z" fill="#FEE"/><path d="M127.397 174.937s-4.274 12.531-2.442 17.115l-5.496 4.891-3.358-4.279s3.664-3.668 3.358-6.419c-.305-2.751-.61-12.531-.61-12.531l8.548 1.223Z" fill="#FFB9B9"/><path d="m106.943 199.386.707.411h18.95a.998.998 0 0 0 .491-1.022c-.088-.454-.314-1.376-.595-2.437-.664-2.511-1.639-5.797-1.851-5.447h-.001l-.001.001-.001.001v.001c-.296.546-.907 2.991-2.435 2.687-1.528-.307-3.97-.918-3.97-.918s.871-1.961.038-2.753a1.166 1.166 0 0 0-.649-.303c-1.832-.304-1.832 2.445-1.832 2.445l-6.716 3.667c-.579.16-1.144.367-1.689.619-1.364.638-2.711 1.729-.446 3.048Z" fill="#2F2E41"/><path d="m139.61 170.352 7.938 9.475 2.137 4.89-2.748 2.139-2.442-.916s-2.137-5.502-4.274-6.419c-2.138-.917-7.328-7.03-7.328-7.03l6.717-2.139Z" fill="#FFB9B9"/><path d="m122.971 163.081 4.048 7.512 2.9 5.38c.929.553 2.165.544 3.496.217a13.223 13.223 0 0 0 1.82-.609c3.633-1.488 7.318-4.444 7.318-4.444l-6.973-8.722-2.278-2.846-.54-.678-2.604 1.115-4.595 1.965-2.592 1.11Z" fill="#2F2E41"/><path d="m141.038 98.209 3.234 13.279-3.328 17.037s-.082 6.964-3.133 6.436c-3.05-.529.147-7.553.147-7.553l1.492-13.969-4.771-13.801c-.386-1.118.102-2.318 1.221-3.002 1.889-1.155 4.573-.334 5.138 1.573ZM129.687 86.76l2.748 8.557 5.19-2.75s-2.137-6.113-2.137-7.03c0-.917-5.801 1.222-5.801 1.222Z" fill="#FFB9B9"/><path d="M131.825 90.121a6.415 6.415 0 0 1-6.412-6.418 6.415 6.415 0 0 1 6.412-6.418 6.414 6.414 0 0 1 6.411 6.418 6.414 6.414 0 0 1-6.411 6.418Z" fill="#FFB9B9"/><path d="m130.145 97.304 1.222-1.223.305-1.528s3.969-5.196 7.327-3.362c1.05.573 1.831 1.892 2.409 3.436a16.708 16.708 0 0 1-.383 12.413l-5.384 12.576-12.213-1.223 2.138-7.947s-2.138-4.89 1.832-8.252l2.747-4.89Z" fill="#FEE"/><path opacity=".3" d="m122.97 163.081 4.049 7.512 2.9 5.38c.928.553 2.165.544 3.496.217.232-1.547-1.154-9.72-.064-16.383l-.049-.238-.54-.678-2.605 1.115-4.594 1.965-2.593 1.11Z"/><path d="M122.97 117.629s7.939-4.89 13.434 1.223l-.305 1.833s4.58 5.196 1.832 16.199c-2.748 11.003-7.022 39.734-7.022 39.734s-10.076.611-14.655-2.751c0 0 1.526-37.9 6.716-41.567v-14.671Z" fill="#2F2E41"/><path d="m139.523 100.606-8.614 10.605-15.571 7.641s-5.593 4.143-7.016 1.391c-1.422-2.753 6.1-4.448 6.1-4.448l12.019-7.252 8.101-12.145c.656-.984 1.906-1.32 3.128-.84 2.06.808 3.028 3.445 1.853 5.048Z" fill="#FFB9B9"/><path d="M145.23 185.268s-1.871-2.356-2.989-.871c-1.118 1.484 1.318 2.756 1.318 2.756l.142 7.658s-1.329 5.856 2.26 3.594c3.589-2.263 3.731-2.534 4.437-3.889.706-1.355 2.165-6.798 3.424-8.553 1.259-1.756 2.412-5.29.917-5.726-1.494-.436-8.461-1.988-8.114-1.471.347.517 2.23 2.19 1.253 3.403-.976 1.214-2.648 3.099-2.648 3.099ZM128.467 78.225l-.001-.023a8.87 8.87 0 0 1 5.466-8.19 8.843 8.843 0 0 1 9.649 1.922 8.87 8.87 0 0 1-1.342 13.637 8.847 8.847 0 0 1-4.919 1.494c-.206 0-1.019 1.542-1.221 1.528-.012-4.678-3.036-10.054-7.632-10.368Z" fill="#2F2E41"/><path d="M146.785 77.285a5.804 5.804 0 0 1-5.801-5.808 5.804 5.804 0 0 1 5.801-5.807c3.204 0 5.801 2.6 5.801 5.807a5.804 5.804 0 0 1-5.801 5.808Z" fill="#2F2E41"/><path d="M147.051 62.68a5.788 5.788 0 0 0-3.812 1.401 5.804 5.804 0 0 0-1.097 7.535 5.793 5.793 0 0 0 3.254 2.432 5.795 5.795 0 0 1-5.556-4.179 5.817 5.817 0 0 1 .695-4.771 5.793 5.793 0 0 1 6.516-2.417Zm-13.7 13.688h-4.647a3.9 3.9 0 0 0-3.902 3.905v1.596h8.549v-5.501Z" fill="#2F2E41"/></svg>