<svg viewBox="0 0 71 70" fill="none" xmlns="http://www.w3.org/2000/svg"><g clip-path="url(#a)"><path d="M20.585 8.829c.47.155.96.267 1.408.472 3.18 1.453 6.108 3.306 8.62 5.746 1.883 1.831 3.66 3.77 5.535 5.713.57-.683 1.213-1.49 1.895-2.264 4.442-5.047 9.664-8.938 16.267-10.661 4.237-1.106 8.006-.016 11.192 2.922 3.016 2.78 4.598 6.286 4.94 10.384.298 3.565-.575 6.817-2.314 9.9-1.506 2.67-3.234 5.172-5.266 7.464-.276.31-.596.58-.947.82-.218-.015-.343.172-.475.257" stroke="url(#b)" stroke-width=".2"/><path d="M.513 19.812c.62.436 1.239.924 1.848 1.426 3.995 3.292 8.29 6.15 12.74 8.782 6.427 3.8 13.044 7.237 19.878 10.25 3.095 1.364 6.293 2.394 9.657 2.788 5.99.701 11.61-.374 16.732-3.676.133-.085.328-.072.501-.062-.027.05-.051.068-.117.126a.938.938 0 0 0-.15.24s.02.023-.025.015c-.06.035-.075.078-.09.12 0 0 .016.008-.032.004a.891.891 0 0 0-.208.258s.003.002-.032.004a.28.28 0 0 0-.088.125s0-.002-.035.001a.296.296 0 0 0-.085.13s-.006-.009-.037 0a.354.354 0 0 0-.082.131s-.013-.013-.04-.002c-.045.052-.062.092-.08.133 0 0-.019-.018-.043-.004a.583.583 0 0 0-.079.131s-.022-.018-.044-.002a.714.714 0 0 0-.079.128s-.015-.01-.04.003c-.054.045-.081.077-.109.108-.076.051-.152.103-.282.194a.615.615 0 0 0-.117.154s.021.01-.034 0c-1.522.788-2.934 1.712-4.463 2.36-6.173 2.614-12.485 2.56-18.825.689-4.456-1.315-8.73-3.112-12.913-5.127-6.116-2.944-11.96-6.346-17.382-10.437-1.798-1.356-3.497-2.844-5.241-4.272 0 0 .012-.008.004-.033-.027-.065-.057-.09-.1-.1-.45-1.477-.564-2.992-.508-4.585Z" fill="url(#c)"/><path d="M58.13 43.357a143.32 143.32 0 0 1-3.04 3.113c-.295.105-.514.172-.717.271-4.739 2.309-9.747 3.018-14.956 2.512-2.787-.27-5.502-.891-8.17-1.734a74.847 74.847 0 0 1-9.365-3.658c-4.138-1.948-8.121-4.165-11.894-6.754l-3.34-2.292s.005-.003-.002-.033a.437.437 0 0 0-.117-.103c-1.694-2.452-3.357-4.922-4.56-7.666-.15-.343-.3-.686-.413-1.071.154.043.273.126.388.214 2.455 1.88 4.83 3.877 7.38 5.618A106.674 106.674 0 0 0 33.675 44.16c4.13 1.474 8.331 2.4 12.75 2.225 3.886-.153 7.552-1.078 11.023-2.814.21-.105.454-.144.682-.214Z" fill="url(#d)"/><path d="M63.453 36.644c-2.046 1.873-4.412 3.224-6.99 4.204-5.605 2.13-11.252 1.91-16.896.18-4.272-1.309-8.23-3.358-12.21-5.34-6.383-3.178-12.592-6.662-18.487-10.685-2.85-1.944-5.603-4.018-8.182-6.378.185-.998.406-1.977.655-2.992 2.492 1.725 4.874 3.616 7.436 5.218 4.995 3.121 10.064 6.126 15.152 9.093a404.045 404.045 0 0 0 12.411 6.95c3.886 2.086 8.05 3.408 12.471 3.648 5.101.278 9.869-.89 14.157-3.765.104-.07.21-.136.377-.19.077.027.092.042.106.057Z" fill="url(#e)"/><path d="M48.535 52.484s-.027.016-.095.017a3.884 3.884 0 0 0-.492.097c-4.626 1.325-9.31 1.615-14.063.827-4.646-.77-9.04-2.323-13.327-4.22-.225-.1-.467-.16-.701-.237 0 0-.012.025-.02-.02a.245.245 0 0 0-.138-.083c-.938-.857-1.925-1.666-2.802-2.582-2.538-2.649-5.03-5.34-7.574-8.081a.55.55 0 0 0-.145-.142s-.013.014-.009-.025c-.03-.062-.066-.086-.1-.11 0 0-.03.024-.019-.026-.044-.097-.1-.143-.154-.189 0 0 .014-.01.006-.038a.46.46 0 0 0-.12-.096s.005-.002.004-.036c-.016-.08-.031-.125-.02-.198.043-.046.06-.065.116-.068.216.13.393.24.566.357 6.123 4.134 12.637 7.496 19.615 9.945 3.695 1.297 7.471 2.256 11.39 2.506 4.28.272 8.442-.34 12.457-1.877.148-.057.319-.052.478-.076-1.536 1.41-3.072 2.821-4.681 4.248-.106.046-.139.077-.172.107Z" fill="url(#f)"/><path d="M61.535 36.35c-2.299 1.54-4.858 2.412-7.563 2.847-5.313.853-10.389-.108-15.193-2.366-3.002-1.411-5.892-3.072-8.77-4.728-6.503-3.743-13.019-7.469-19.425-11.372-3.026-1.844-5.813-4.08-8.749-6.154.371-.76.783-1.507 1.233-2.273 2.105 1.323 4.142 2.714 6.243 4 6.257 3.831 12.558 7.589 18.801 11.441 2.667 1.646 5.204 3.5 7.85 5.18 3.95 2.51 8.163 4.39 12.847 5.059 4.147.59 8.168.216 12.021-1.511.172-.077.35-.137.592-.188.082.033.098.05.113.065Z" fill="url(#g)"/><path d="M5.482 9.598a452.57 452.57 0 0 1 7.055 3.882c6.017 3.387 11.9 6.989 17.414 11.158 2.217 1.677 4.314 3.513 6.545 5.17 3.602 2.675 7.506 4.765 11.913 5.833 3.634.88 7.243.818 10.854-.088.174-.044.35-.082.524-.123l.054.184c-.93.277-1.851.596-2.794.824-6.335 1.532-12.2.068-17.731-3.001-2.626-1.457-5.056-3.262-7.614-4.847-6.023-3.733-12.075-7.42-18.104-11.143-3.255-2.01-6.486-4.059-9.768-6.102a32.066 32.066 0 0 1 1.652-1.747Z" fill="url(#h)"/><path d="M9.483 7.44c1.614.789 3.198 1.543 4.742 2.37 6.83 3.666 13.157 8.033 18.685 13.504 2.862 2.832 5.92 5.421 9.41 7.459 3.87 2.26 8.004 3.66 12.523 3.76.416.01.834-.053 1.251-.065.412-.012.825-.003 1.237-.003l.01.169c-1.3.071-2.6.218-3.9.2-5.537-.072-10.38-2.19-14.814-5.304-2.63-1.847-5.088-3.937-7.646-5.89-6.079-4.64-12.623-8.552-19.286-12.277-1.604-.898-3.226-1.765-4.883-2.658.845-.43 1.733-.849 2.67-1.265Z" fill="url(#i)"/><path d="M31.367 58.435c-1.105-.785-2.26-1.509-3.305-2.367a259.141 259.141 0 0 1-7.327-6.271c.402.095.753.23 1.097.38a53.732 53.732 0 0 0 10.608 3.386 32.52 32.52 0 0 0 12.21.203c1.066-.184 2.123-.415 3.184-.624-2.274 1.75-4.547 3.5-6.917 5.256-1.964.128-3.83.323-5.698.349-1.282.017-2.568-.2-3.852-.312Z" fill="url(#j)"/><path d="M46.566 31.047c-1.395-.699-2.84-1.316-4.175-2.114-2.902-1.737-5.484-3.906-7.87-6.292C28.036 16.156 20.538 11.12 12.343 7c2.737-.018 5.367.605 7.965 1.721.135.07.207.09.28.11l-.003-.002c.515.38 1.022.772 1.547 1.14 4.033 2.822 7.55 6.202 10.765 9.916 2.983 3.445 6.288 6.538 10.158 8.983 1.147.724 2.327 1.396 3.502 2.135l.009.043Z" fill="url(#k)"/><path d="M40.29 58.9c-1.043.568-2.082 1.142-3.13 1.7-.87.463-1.73.376-2.558-.114a54.224 54.224 0 0 1-2.642-1.653c2.276.221 4.517.334 6.767.082.516-.057 1.042-.013 1.564-.015Z" fill="url(#l)"/><path d="M20.573 8.793c-.058.018-.13-.001-.224-.054.056-.017.133-.001.224.054Z" fill="url(#m)"/><path d="M8.897 37.748c.054.008.109.054.167.138-.053-.008-.11-.054-.167-.138Z" fill="url(#n)"/><path d="M8.784 37.61c.035-.011.072.011.112.068-.034.012-.071-.01-.112-.068Z" fill="url(#o)"/><path d="M6.535 34.713c.03-.01.067.014.11.071-.031.01-.068-.014-.11-.071Z" fill="url(#p)"/><path d="M1.023 24.429c.04-.021.071.003.093.073-.044.027-.075.003-.093-.073Z" fill="url(#q)"/><path d="M9.07 37.959c.033-.01.068.014.107.07-.032.01-.068-.013-.106-.07Z" fill="url(#r)"/><path d="M9.184 38.094c.031-.008.068.017.11.078-.03.01-.068-.017-.11-.078Z" fill="url(#s)"/><path d="M20.596 49.774c.007-.037.05-.049.104-.036-.015.037-.042.049-.104.036Z" fill="url(#t)"/><path d="M19.713 48.897c.03-.02.073-.008.128.037-.03.02-.07.007-.128-.037Z" fill="url(#u)"/><path d="M46.567 31.047c.058.021.116.043.173.066-.048-.002-.097-.003-.16-.035-.014-.03-.014-.03-.013-.031Z" fill="url(#v)"/></g><defs><linearGradient id="b" x1="55.54" y1="43.222" x2="1.365" y2="40.759" gradientUnits="userSpaceOnUse"><stop stop-color="#AE00EB"/><stop offset=".2" stop-color="#1400F8"/><stop offset=".4" stop-color="#00F55C"/><stop offset=".6" stop-color="#EBD200"/><stop offset=".8" stop-color="#F46E00"/><stop offset="1" stop-color="#EF0028"/></linearGradient><linearGradient id="c" x1="58.132" y1="36.552" x2="23.111" y2="1.697" gradientUnits="userSpaceOnUse"><stop stop-color="#CE44FF"/><stop offset=".2" stop-color="#402FFF"/><stop offset=".4" stop-color="#32FF80"/><stop offset=".6" stop-color="#FFE400"/><stop offset=".8" stop-color="#FF8D2F"/><stop offset="1" stop-color="#FF3254"/></linearGradient><linearGradient id="d" x1="54.685" y1="41.109" x2="22.957" y2="8.979" gradientUnits="userSpaceOnUse"><stop stop-color="#CE44FF"/><stop offset=".2" stop-color="#402FFF"/><stop offset=".4" stop-color="#32FF80"/><stop offset=".6" stop-color="#FFE400"/><stop offset=".8" stop-color="#FF8D2F"/><stop offset="1" stop-color="#FF3254"/></linearGradient><linearGradient id="e" x1="59.631" y1="32.925" x2="23.46" y2="-2.72" gradientUnits="userSpaceOnUse"><stop stop-color="#CE44FF"/><stop offset=".2" stop-color="#402FFF"/><stop offset=".4" stop-color="#32FF80"/><stop offset=".6" stop-color="#FFE400"/><stop offset=".8" stop-color="#FF8D2F"/><stop offset="1" stop-color="#FF3254"/></linearGradient><linearGradient id="f" x1="50.671" y1="47.994" x2="28.411" y2="22.836" gradientUnits="userSpaceOnUse"><stop stop-color="#CE44FF"/><stop offset=".2" stop-color="#402FFF"/><stop offset=".4" stop-color="#32FF80"/><stop offset=".6" stop-color="#FFE400"/><stop offset=".8" stop-color="#FF8D2F"/><stop offset="1" stop-color="#FF3254"/></linearGradient><linearGradient id="g" x1="57.9" y1="29.885" x2="21.24" y2="-3.91" gradientUnits="userSpaceOnUse"><stop stop-color="#CE44FF"/><stop offset=".2" stop-color="#402FFF"/><stop offset=".4" stop-color="#32FF80"/><stop offset=".6" stop-color="#FFE400"/><stop offset=".8" stop-color="#FF8D2F"/><stop offset="1" stop-color="#FF3254"/></linearGradient><linearGradient id="h" x1="56.43" y1="27.342" x2="19.745" y2="-4.095" gradientUnits="userSpaceOnUse"><stop stop-color="#CE44FF"/><stop offset=".2" stop-color="#402FFF"/><stop offset=".4" stop-color="#32FF80"/><stop offset=".6" stop-color="#FFE400"/><stop offset=".8" stop-color="#FF8D2F"/><stop offset="1" stop-color="#FF3254"/></linearGradient><linearGradient id="i" x1="54.265" y1="25.147" x2="18.394" y2="-2.642" gradientUnits="userSpaceOnUse"><stop stop-color="#CE44FF"/><stop offset=".2" stop-color="#402FFF"/><stop offset=".4" stop-color="#32FF80"/><stop offset=".6" stop-color="#FFE400"/><stop offset=".8" stop-color="#FF8D2F"/><stop offset="1" stop-color="#FF3254"/></linearGradient><linearGradient id="j" x1="46.184" y1="55.582" x2="34.422" y2="40.625" gradientUnits="userSpaceOnUse"><stop stop-color="#CE44FF"/><stop offset=".2" stop-color="#402FFF"/><stop offset=".4" stop-color="#32FF80"/><stop offset=".6" stop-color="#FFE400"/><stop offset=".8" stop-color="#FF8D2F"/><stop offset="1" stop-color="#FF3254"/></linearGradient><linearGradient id="k" x1="44.482" y1="22.543" x2="15.841" y2="5.423" gradientUnits="userSpaceOnUse"><stop stop-color="#CE44FF"/><stop offset=".2" stop-color="#402FFF"/><stop offset=".4" stop-color="#32FF80"/><stop offset=".6" stop-color="#FFE400"/><stop offset=".8" stop-color="#FF8D2F"/><stop offset="1" stop-color="#FF3254"/></linearGradient><linearGradient id="l" x1="39.783" y1="60.172" x2="37.328" y2="56.024" gradientUnits="userSpaceOnUse"><stop stop-color="#CE44FF"/><stop offset=".2" stop-color="#402FFF"/><stop offset=".4" stop-color="#32FF80"/><stop offset=".6" stop-color="#FFE400"/><stop offset=".8" stop-color="#FF8D2F"/><stop offset="1" stop-color="#FF3254"/></linearGradient><linearGradient id="m" x1="20.56" y1="8.776" x2="20.474" y2="8.655" gradientUnits="userSpaceOnUse"><stop stop-color="#CE44FF"/><stop offset=".2" stop-color="#402FFF"/><stop offset=".4" stop-color="#32FF80"/><stop offset=".6" stop-color="#FFE400"/><stop offset=".8" stop-color="#FF8D2F"/><stop offset="1" stop-color="#FF3254"/></linearGradient><linearGradient id="n" x1="9.054" y1="37.837" x2="8.903" y2="37.761" gradientUnits="userSpaceOnUse"><stop stop-color="#CE44FF"/><stop offset=".2" stop-color="#402FFF"/><stop offset=".4" stop-color="#32FF80"/><stop offset=".6" stop-color="#FFE400"/><stop offset=".8" stop-color="#FF8D2F"/><stop offset="1" stop-color="#FF3254"/></linearGradient><linearGradient id="o" x1="8.889" y1="37.655" x2="8.799" y2="37.598" gradientUnits="userSpaceOnUse"><stop stop-color="#CE44FF"/><stop offset=".2" stop-color="#402FFF"/><stop offset=".4" stop-color="#32FF80"/><stop offset=".6" stop-color="#FFE400"/><stop offset=".8" stop-color="#FF8D2F"/><stop offset="1" stop-color="#FF3254"/></linearGradient><linearGradient id="p" x1="6.638" y1="34.76" x2="6.547" y2="34.704" gradientUnits="userSpaceOnUse"><stop stop-color="#CE44FF"/><stop offset=".2" stop-color="#402FFF"/><stop offset=".4" stop-color="#32FF80"/><stop offset=".6" stop-color="#FFE400"/><stop offset=".8" stop-color="#FF8D2F"/><stop offset="1" stop-color="#FF3254"/></linearGradient><linearGradient id="q" x1="1.111" y1="24.481" x2="1.021" y2="24.442" gradientUnits="userSpaceOnUse"><stop stop-color="#CE44FF"/><stop offset=".2" stop-color="#402FFF"/><stop offset=".4" stop-color="#32FF80"/><stop offset=".6" stop-color="#FFE400"/><stop offset=".8" stop-color="#FF8D2F"/><stop offset="1" stop-color="#FF3254"/></linearGradient><linearGradient id="r" x1="9.17" y1="38.005" x2="9.081" y2="37.952" gradientUnits="userSpaceOnUse"><stop stop-color="#CE44FF"/><stop offset=".2" stop-color="#402FFF"/><stop offset=".4" stop-color="#32FF80"/><stop offset=".6" stop-color="#FFE400"/><stop offset=".8" stop-color="#FF8D2F"/><stop offset="1" stop-color="#FF3254"/></linearGradient><linearGradient id="s" x1="9.288" y1="38.145" x2="9.193" y2="38.09" gradientUnits="userSpaceOnUse"><stop stop-color="#CE44FF"/><stop offset=".2" stop-color="#402FFF"/><stop offset=".4" stop-color="#32FF80"/><stop offset=".6" stop-color="#FFE400"/><stop offset=".8" stop-color="#FF8D2F"/><stop offset="1" stop-color="#FF3254"/></linearGradient><linearGradient id="t" x1="20.693" y1="49.763" x2="20.631" y2="49.704" gradientUnits="userSpaceOnUse"><stop stop-color="#CE44FF"/><stop offset=".2" stop-color="#402FFF"/><stop offset=".4" stop-color="#32FF80"/><stop offset=".6" stop-color="#FFE400"/><stop offset=".8" stop-color="#FF8D2F"/><stop offset="1" stop-color="#FF3254"/></linearGradient><linearGradient id="u" x1="19.834" y1="48.923" x2="19.759" y2="48.851" gradientUnits="userSpaceOnUse"><stop stop-color="#CE44FF"/><stop offset=".2" stop-color="#402FFF"/><stop offset=".4" stop-color="#32FF80"/><stop offset=".6" stop-color="#FFE400"/><stop offset=".8" stop-color="#FF8D2F"/><stop offset="1" stop-color="#FF3254"/></linearGradient><linearGradient id="v" x1="46.73" y1="31.089" x2="46.642" y2="30.991" gradientUnits="userSpaceOnUse"><stop stop-color="#CE44FF"/><stop offset=".2" stop-color="#402FFF"/><stop offset=".4" stop-color="#32FF80"/><stop offset=".6" stop-color="#FFE400"/><stop offset=".8" stop-color="#FF8D2F"/><stop offset="1" stop-color="#FF3254"/></linearGradient><clipPath id="a"><path fill="#fff" d="M.5 0h70v70H.5z"/></clipPath></defs></svg>