<svg viewBox="0 0 147 70" fill="none" xmlns="http://www.w3.org/2000/svg"><g clip-path="url(#a)"><path d="M82.078 29V13h10.406v2.43h-7.507v4.343h6.968v2.43h-6.968v4.367h7.57V29H82.078Zm21.246 4.5v-6.39h-.117a4.848 4.848 0 0 1-.633.93 3.48 3.48 0 0 1-1.094.827c-.453.23-1.023.344-1.71.344-.943 0-1.787-.242-2.532-.727-.745-.484-1.333-1.187-1.765-2.109-.433-.922-.649-2.042-.649-3.36 0-1.333.219-2.458.657-3.374.442-.922 1.038-1.618 1.788-2.086a4.597 4.597 0 0 1 2.508-.711c.703 0 1.282.12 1.735.36.453.233.812.517 1.078.85.265.329.471.639.617.93h.172V17h2.781v16.5h-2.836Zm-2.765-6.61c.599 0 1.109-.16 1.531-.484.422-.328.742-.784.961-1.367.219-.583.328-1.263.328-2.039 0-.776-.109-1.45-.328-2.023-.214-.573-.531-1.019-.953-1.336-.417-.318-.93-.477-1.539-.477-.63 0-1.157.164-1.578.492-.422.328-.74.782-.954 1.36-.213.578-.32 1.24-.32 1.984 0 .75.107 1.42.32 2.008.22.583.54 1.044.961 1.383.427.333.95.5 1.571.5Zm16.156-2.937V17h2.828v12h-2.742v-2.133h-.125a3.608 3.608 0 0 1-1.336 1.649c-.615.427-1.373.64-2.274.64-.786 0-1.481-.174-2.086-.523-.598-.354-1.067-.867-1.406-1.54-.338-.676-.508-1.494-.508-2.452V17h2.829v7.203c0 .76.208 1.365.625 1.813.416.448.963.672 1.64.672.417 0 .82-.102 1.211-.305a2.46 2.46 0 0 0 .961-.906c.255-.407.383-.915.383-1.524Zm9.189 5.29c-.76 0-1.445-.136-2.054-.407a3.349 3.349 0 0 1-1.438-1.219c-.349-.536-.523-1.198-.523-1.984 0-.677.125-1.237.375-1.68.25-.443.591-.797 1.023-1.062a5.155 5.155 0 0 1 1.461-.602c.547-.14 1.112-.242 1.695-.305a66.498 66.498 0 0 0 1.711-.195c.438-.062.756-.156.953-.281.204-.13.305-.33.305-.602v-.047c0-.588-.174-1.044-.523-1.367-.349-.323-.852-.484-1.508-.484-.693 0-1.242.15-1.649.453-.401.302-.671.659-.812 1.07l-2.641-.375c.209-.729.552-1.338 1.032-1.828a4.487 4.487 0 0 1 1.757-1.11c.693-.25 1.459-.374 2.297-.374.578 0 1.154.067 1.727.203.573.135 1.096.36 1.57.672a3.38 3.38 0 0 1 1.141 1.258c.291.53.437 1.195.437 1.992V29h-2.719v-1.648h-.093a3.448 3.448 0 0 1-.727.937 3.49 3.49 0 0 1-1.164.695c-.463.172-1.008.258-1.633.258Zm.735-2.079c.567 0 1.06-.112 1.476-.336a2.48 2.48 0 0 0 .961-.906 2.31 2.31 0 0 0 .344-1.227v-1.414c-.089.073-.24.14-.453.203a6.453 6.453 0 0 1-.703.164c-.261.047-.519.089-.774.125l-.664.094a4.948 4.948 0 0 0-1.133.281c-.333.13-.596.313-.789.547-.192.23-.289.526-.289.89 0 .522.19.915.571 1.18.38.266.864.4 1.453.4ZM137.912 13v16h-2.828V13h2.828ZM82.078 56V40h6c1.23 0 2.26.214 3.094.64.838.428 1.471 1.027 1.898 1.797.433.766.649 1.66.649 2.68 0 1.026-.219 1.917-.656 2.672-.433.75-1.07 1.33-1.915 1.742-.843.407-1.88.61-3.109.61h-4.273v-2.407h3.882c.72 0 1.308-.099 1.766-.297.458-.203.797-.497 1.016-.882.224-.39.336-.87.336-1.438 0-.567-.112-1.052-.336-1.453a2.137 2.137 0 0 0-1.024-.922c-.458-.213-1.05-.32-1.773-.32h-2.656V56h-2.899Zm8.266-7.25 3.96 7.25H91.07l-3.89-7.25h3.164Zm11.058 7.484c-1.203 0-2.242-.25-3.117-.75a5.08 5.08 0 0 1-2.008-2.14c-.468-.927-.703-2.019-.703-3.274 0-1.234.235-2.317.703-3.25.474-.937 1.136-1.666 1.985-2.187.849-.526 1.846-.79 2.992-.79.739 0 1.437.12 2.094.36a4.743 4.743 0 0 1 1.75 1.094c.51.495.911 1.125 1.203 1.89.291.76.437 1.667.437 2.72v.866h-9.836v-1.906h7.125a3.04 3.04 0 0 0-.351-1.445 2.558 2.558 0 0 0-.961-1.008c-.406-.245-.88-.367-1.422-.367-.578 0-1.086.14-1.524.422a2.91 2.91 0 0 0-1.023 1.093 3.14 3.14 0 0 0-.367 1.477v1.664c0 .698.127 1.297.383 1.797.255.495.612.875 1.07 1.14.458.261.995.391 1.609.391.412 0 .784-.057 1.118-.172.333-.12.622-.294.867-.523a2.18 2.18 0 0 0 .554-.852l2.641.297a4.117 4.117 0 0 1-.953 1.828c-.464.516-1.057.917-1.781 1.203-.724.282-1.552.422-2.485.422Zm11.182.008c-.76 0-1.445-.135-2.055-.406a3.352 3.352 0 0 1-1.437-1.219c-.349-.536-.524-1.198-.524-1.984 0-.677.125-1.237.375-1.68.25-.443.592-.797 1.024-1.062a5.155 5.155 0 0 1 1.461-.602c.547-.14 1.112-.242 1.695-.305a67.023 67.023 0 0 0 1.711-.195c.437-.062.755-.156.953-.281.203-.13.305-.33.305-.602v-.047c0-.588-.175-1.044-.524-1.367-.349-.323-.851-.484-1.507-.484-.693 0-1.243.15-1.649.453-.401.302-.672.659-.812 1.07l-2.641-.375c.208-.729.552-1.338 1.031-1.828a4.483 4.483 0 0 1 1.758-1.11c.693-.25 1.458-.374 2.297-.374a7.44 7.44 0 0 1 1.726.203 4.86 4.86 0 0 1 1.571.672c.474.307.854.726 1.14 1.258.292.53.438 1.195.438 1.992V56h-2.719v-1.648h-.094a3.444 3.444 0 0 1-.726.937 3.49 3.49 0 0 1-1.164.695c-.464.172-1.008.258-1.633.258Zm.734-2.078c.568 0 1.06-.112 1.477-.336a2.48 2.48 0 0 0 .961-.906 2.31 2.31 0 0 0 .344-1.227v-1.414c-.089.073-.24.14-.454.203a6.345 6.345 0 0 1-.703.164c-.26.047-.518.089-.773.125l-.664.094c-.422.058-.8.151-1.133.281-.333.13-.596.313-.789.547-.193.23-.289.526-.289.89 0 .522.19.915.57 1.18.38.266.865.4 1.453.4Zm13.68 2.07c-1.198 0-2.227-.263-3.086-.789a5.265 5.265 0 0 1-1.976-2.18c-.459-.932-.688-2.005-.688-3.218 0-1.219.234-2.294.703-3.227.469-.937 1.13-1.666 1.985-2.187.859-.526 1.875-.79 3.046-.79.974 0 1.836.18 2.586.54a4.415 4.415 0 0 1 1.805 1.508c.448.645.703 1.4.766 2.265h-2.703a2.586 2.586 0 0 0-.782-1.445c-.406-.39-.95-.586-1.633-.586a2.55 2.55 0 0 0-1.523.469c-.437.307-.779.75-1.023 1.328-.24.578-.36 1.27-.36 2.078 0 .818.12 1.52.36 2.11.239.583.575 1.033 1.007 1.35.438.313.951.47 1.539.47.417 0 .79-.078 1.118-.235.333-.161.612-.393.836-.695.224-.302.377-.67.461-1.102h2.703c-.068.85-.318 1.602-.75 2.258a4.445 4.445 0 0 1-1.766 1.532c-.745.364-1.62.546-2.625.546Zm10.291-7.265V56h-2.828V40h2.766v6.04h.14a3.468 3.468 0 0 1 1.305-1.602c.594-.396 1.349-.594 2.266-.594.833 0 1.559.174 2.179.523.62.35 1.099.86 1.438 1.531.343.672.515 1.493.515 2.461V56h-2.828v-7.203c0-.807-.208-1.435-.625-1.883-.411-.453-.989-.68-1.734-.68-.5 0-.948.11-1.344.328a2.294 2.294 0 0 0-.922.93c-.219.406-.328.899-.328 1.477Z" fill="#454545"/><path d="M20.585 10.579c.47.155.96.267 1.408.472 3.18 1.453 6.108 3.306 8.62 5.746 1.883 1.831 3.66 3.77 5.535 5.713.57-.683 1.213-1.49 1.895-2.264 4.442-5.047 9.664-8.938 16.267-10.661 4.237-1.106 8.006-.016 11.192 2.922 3.016 2.78 4.598 6.286 4.94 10.384.298 3.565-.575 6.817-2.314 9.9-1.506 2.67-3.234 5.172-5.266 7.464-.276.31-.596.58-.947.82-.218-.015-.343.172-.475.257" stroke="url(#b)" stroke-width=".2"/><path d="M.513 21.562c.62.436 1.239.924 1.848 1.426 3.995 3.292 8.29 6.15 12.74 8.782 6.427 3.8 13.044 7.237 19.878 10.25 3.095 1.364 6.293 2.394 9.657 2.788 5.99.701 11.61-.374 16.732-3.676.133-.085.328-.072.501-.062-.027.05-.051.068-.117.126a.938.938 0 0 0-.15.24s.02.023-.025.015c-.06.035-.075.078-.09.12 0 0 .016.008-.032.004a.891.891 0 0 0-.208.258s.003.002-.032.004a.28.28 0 0 0-.088.125s0-.002-.035.001a.296.296 0 0 0-.085.13s-.006-.009-.037 0a.354.354 0 0 0-.082.131s-.013-.013-.04-.002c-.045.052-.062.092-.08.133 0 0-.019-.018-.043-.004a.583.583 0 0 0-.079.131s-.022-.018-.044-.002a.714.714 0 0 0-.079.128s-.015-.01-.04.003c-.054.045-.081.077-.109.108-.076.051-.152.103-.282.194a.615.615 0 0 0-.117.154s.021.01-.034 0c-1.522.788-2.934 1.712-4.463 2.36-6.173 2.614-12.485 2.56-18.825.689-4.456-1.315-8.73-3.112-12.913-5.127-6.116-2.944-11.96-6.346-17.382-10.437-1.798-1.356-3.497-2.844-5.241-4.272 0 0 .012-.008.004-.033-.027-.065-.057-.09-.1-.1-.45-1.477-.564-2.992-.508-4.585Z" fill="url(#c)"/><path d="M58.13 45.107a143.32 143.32 0 0 1-3.04 3.113c-.295.105-.514.172-.717.271-4.739 2.309-9.747 3.018-14.956 2.512-2.787-.27-5.502-.891-8.17-1.734a74.847 74.847 0 0 1-9.365-3.658c-4.138-1.948-8.121-4.165-11.894-6.754l-3.34-2.292s.005-.003-.002-.033a.437.437 0 0 0-.117-.103c-1.694-2.452-3.357-4.922-4.56-7.666-.15-.343-.3-.686-.413-1.071.154.043.273.126.388.214 2.455 1.88 4.83 3.877 7.38 5.618A106.674 106.674 0 0 0 33.675 45.91c4.13 1.474 8.331 2.4 12.75 2.225 3.886-.153 7.552-1.078 11.023-2.814.21-.105.454-.144.682-.214Z" fill="url(#d)"/><path d="M63.453 38.394c-2.046 1.873-4.412 3.224-6.99 4.204-5.605 2.13-11.252 1.91-16.896.18-4.272-1.309-8.23-3.358-12.21-5.34-6.383-3.178-12.592-6.662-18.487-10.685-2.85-1.944-5.603-4.018-8.182-6.378.185-.998.406-1.977.655-2.992C3.835 19.108 6.217 21 8.78 22.601c4.995 3.121 10.064 6.126 15.152 9.093a404.045 404.045 0 0 0 12.411 6.95c3.886 2.086 8.05 3.408 12.471 3.648 5.101.278 9.869-.89 14.157-3.765.104-.07.21-.136.377-.19.077.027.092.042.106.057Z" fill="url(#e)"/><path d="M48.535 54.234s-.027.016-.095.017a3.884 3.884 0 0 0-.492.097c-4.626 1.325-9.31 1.615-14.063.827-4.646-.77-9.04-2.323-13.327-4.22-.225-.1-.467-.16-.701-.237 0 0-.012.025-.02-.02a.245.245 0 0 0-.138-.083c-.938-.857-1.925-1.666-2.802-2.582-2.538-2.649-5.03-5.34-7.574-8.081a.55.55 0 0 0-.145-.142s-.013.014-.009-.025c-.03-.062-.066-.086-.1-.11 0 0-.03.024-.019-.026-.044-.097-.1-.143-.154-.189 0 0 .014-.01.006-.038a.46.46 0 0 0-.12-.096s.005-.002.004-.036c-.016-.08-.031-.125-.02-.198.043-.046.06-.065.116-.068.216.13.393.24.566.357 6.123 4.134 12.637 7.496 19.615 9.945 3.695 1.297 7.471 2.256 11.39 2.506 4.28.272 8.442-.34 12.457-1.877.148-.057.319-.052.478-.076-1.536 1.41-3.072 2.821-4.681 4.248-.106.046-.139.077-.172.107Z" fill="url(#f)"/><path d="M61.535 38.1c-2.299 1.54-4.858 2.412-7.563 2.847-5.313.853-10.389-.108-15.193-2.366-3.002-1.411-5.892-3.072-8.77-4.728-6.503-3.743-13.019-7.469-19.425-11.372-3.026-1.844-5.813-4.08-8.749-6.154.371-.76.783-1.507 1.233-2.273 2.105 1.323 4.142 2.714 6.243 4 6.257 3.831 12.558 7.589 18.801 11.441 2.667 1.646 5.204 3.5 7.85 5.18 3.95 2.51 8.163 4.39 12.847 5.059 4.147.59 8.168.216 12.021-1.511.172-.077.35-.137.592-.188.082.033.098.05.113.065Z" fill="url(#g)"/><path d="M5.482 11.348a452.57 452.57 0 0 1 7.055 3.882c6.017 3.387 11.9 6.989 17.414 11.158 2.217 1.677 4.314 3.513 6.545 5.17 3.602 2.675 7.506 4.765 11.913 5.833 3.634.88 7.243.818 10.854-.088.174-.044.35-.082.524-.123l.054.184c-.93.277-1.851.596-2.794.824-6.335 1.532-12.2.068-17.731-3.001-2.626-1.457-5.056-3.262-7.614-4.847-6.023-3.733-12.075-7.42-18.104-11.143-3.255-2.01-6.486-4.059-9.768-6.102a32.077 32.077 0 0 1 1.652-1.748Z" fill="url(#h)"/><path d="M9.483 9.19c1.614.789 3.198 1.543 4.742 2.37 6.83 3.666 13.157 8.033 18.685 13.504 2.862 2.832 5.92 5.421 9.41 7.459 3.87 2.26 8.004 3.66 12.523 3.76.416.01.834-.053 1.251-.065.412-.012.825-.003 1.237-.003l.01.169c-1.3.071-2.6.218-3.9.2-5.537-.072-10.38-2.19-14.814-5.304-2.63-1.847-5.088-3.937-7.646-5.89-6.079-4.64-12.623-8.552-19.286-12.277-1.604-.898-3.226-1.765-4.883-2.658a56.25 56.25 0 0 1 2.67-1.265Z" fill="url(#i)"/><path d="M31.367 60.185c-1.105-.785-2.26-1.509-3.305-2.367a259.141 259.141 0 0 1-7.327-6.271c.402.095.753.23 1.097.38a53.732 53.732 0 0 0 10.608 3.386 32.52 32.52 0 0 0 12.21.203c1.066-.184 2.123-.415 3.184-.624-2.274 1.75-4.547 3.5-6.917 5.256-1.964.128-3.83.323-5.698.349-1.282.017-2.568-.2-3.852-.312Z" fill="url(#j)"/><path d="M46.566 32.797c-1.395-.699-2.84-1.316-4.175-2.114-2.902-1.737-5.484-3.906-7.87-6.292-6.485-6.485-13.983-11.52-22.178-15.64 2.737-.018 5.367.605 7.965 1.721.135.07.207.09.28.11l-.003-.003c.515.38 1.022.773 1.547 1.14 4.033 2.824 7.55 6.203 10.765 9.917 2.983 3.445 6.288 6.538 10.158 8.983 1.147.724 2.327 1.397 3.502 2.135.01.043.009.044.009.044Z" fill="url(#k)"/><path d="M40.29 60.65c-1.043.568-2.082 1.142-3.13 1.7-.87.463-1.73.376-2.558-.114a54.224 54.224 0 0 1-2.642-1.653c2.276.221 4.517.334 6.767.082.516-.057 1.042-.013 1.564-.015Z" fill="url(#l)"/><path d="M20.573 10.543c-.058.018-.13-.002-.224-.054.056-.017.133-.001.224.054Z" fill="url(#m)"/><path d="M8.897 39.498c.054.008.109.054.167.138-.053-.008-.11-.054-.167-.138Z" fill="url(#n)"/><path d="M8.784 39.36c.035-.011.072.011.112.068-.034.012-.071-.01-.112-.068Z" fill="url(#o)"/><path d="M6.535 36.463c.03-.01.067.014.11.071-.031.01-.068-.014-.11-.071Z" fill="url(#p)"/><path d="M1.023 26.179c.04-.021.071.003.093.073-.044.027-.075.003-.093-.073Z" fill="url(#q)"/><path d="M9.07 39.709c.033-.01.068.014.107.07-.032.01-.068-.013-.106-.07Z" fill="url(#r)"/><path d="M9.184 39.844c.031-.008.068.017.11.078-.03.01-.068-.017-.11-.078Z" fill="url(#s)"/><path d="M20.596 51.524c.007-.037.05-.049.104-.036-.015.037-.042.049-.104.036Z" fill="url(#t)"/><path d="M19.713 50.647c.03-.02.073-.008.128.037-.03.02-.07.007-.128-.037Z" fill="url(#u)"/><path d="m46.567 32.797.173.066c-.048-.002-.097-.003-.16-.035-.014-.03-.014-.03-.013-.031Z" fill="url(#v)"/></g><defs><linearGradient id="b" x1="55.54" y1="44.972" x2="1.365" y2="42.509" gradientUnits="userSpaceOnUse"><stop stop-color="#AE00EB"/><stop offset=".2" stop-color="#1400F8"/><stop offset=".4" stop-color="#00F55C"/><stop offset=".6" stop-color="#EBD200"/><stop offset=".8" stop-color="#F46E00"/><stop offset="1" stop-color="#EF0028"/></linearGradient><linearGradient id="c" x1="58.132" y1="38.302" x2="23.111" y2="3.447" gradientUnits="userSpaceOnUse"><stop stop-color="#CE44FF"/><stop offset=".2" stop-color="#402FFF"/><stop offset=".4" stop-color="#32FF80"/><stop offset=".6" stop-color="#FFE400"/><stop offset=".8" stop-color="#FF8D2F"/><stop offset="1" stop-color="#FF3254"/></linearGradient><linearGradient id="d" x1="54.685" y1="42.859" x2="22.957" y2="10.729" gradientUnits="userSpaceOnUse"><stop stop-color="#CE44FF"/><stop offset=".2" stop-color="#402FFF"/><stop offset=".4" stop-color="#32FF80"/><stop offset=".6" stop-color="#FFE400"/><stop offset=".8" stop-color="#FF8D2F"/><stop offset="1" stop-color="#FF3254"/></linearGradient><linearGradient id="e" x1="59.631" y1="34.675" x2="23.46" y2="-.97" gradientUnits="userSpaceOnUse"><stop stop-color="#CE44FF"/><stop offset=".2" stop-color="#402FFF"/><stop offset=".4" stop-color="#32FF80"/><stop offset=".6" stop-color="#FFE400"/><stop offset=".8" stop-color="#FF8D2F"/><stop offset="1" stop-color="#FF3254"/></linearGradient><linearGradient id="f" x1="50.671" y1="49.744" x2="28.411" y2="24.586" gradientUnits="userSpaceOnUse"><stop stop-color="#CE44FF"/><stop offset=".2" stop-color="#402FFF"/><stop offset=".4" stop-color="#32FF80"/><stop offset=".6" stop-color="#FFE400"/><stop offset=".8" stop-color="#FF8D2F"/><stop offset="1" stop-color="#FF3254"/></linearGradient><linearGradient id="g" x1="57.9" y1="31.635" x2="21.24" y2="-2.16" gradientUnits="userSpaceOnUse"><stop stop-color="#CE44FF"/><stop offset=".2" stop-color="#402FFF"/><stop offset=".4" stop-color="#32FF80"/><stop offset=".6" stop-color="#FFE400"/><stop offset=".8" stop-color="#FF8D2F"/><stop offset="1" stop-color="#FF3254"/></linearGradient><linearGradient id="h" x1="56.43" y1="29.092" x2="19.745" y2="-2.345" gradientUnits="userSpaceOnUse"><stop stop-color="#CE44FF"/><stop offset=".2" stop-color="#402FFF"/><stop offset=".4" stop-color="#32FF80"/><stop offset=".6" stop-color="#FFE400"/><stop offset=".8" stop-color="#FF8D2F"/><stop offset="1" stop-color="#FF3254"/></linearGradient><linearGradient id="i" x1="54.265" y1="26.897" x2="18.394" y2="-.892" gradientUnits="userSpaceOnUse"><stop stop-color="#CE44FF"/><stop offset=".2" stop-color="#402FFF"/><stop offset=".4" stop-color="#32FF80"/><stop offset=".6" stop-color="#FFE400"/><stop offset=".8" stop-color="#FF8D2F"/><stop offset="1" stop-color="#FF3254"/></linearGradient><linearGradient id="j" x1="46.184" y1="57.332" x2="34.422" y2="42.375" gradientUnits="userSpaceOnUse"><stop stop-color="#CE44FF"/><stop offset=".2" stop-color="#402FFF"/><stop offset=".4" stop-color="#32FF80"/><stop offset=".6" stop-color="#FFE400"/><stop offset=".8" stop-color="#FF8D2F"/><stop offset="1" stop-color="#FF3254"/></linearGradient><linearGradient id="k" x1="44.482" y1="24.293" x2="15.841" y2="7.173" gradientUnits="userSpaceOnUse"><stop stop-color="#CE44FF"/><stop offset=".2" stop-color="#402FFF"/><stop offset=".4" stop-color="#32FF80"/><stop offset=".6" stop-color="#FFE400"/><stop offset=".8" stop-color="#FF8D2F"/><stop offset="1" stop-color="#FF3254"/></linearGradient><linearGradient id="l" x1="39.783" y1="61.922" x2="37.328" y2="57.774" gradientUnits="userSpaceOnUse"><stop stop-color="#CE44FF"/><stop offset=".2" stop-color="#402FFF"/><stop offset=".4" stop-color="#32FF80"/><stop offset=".6" stop-color="#FFE400"/><stop offset=".8" stop-color="#FF8D2F"/><stop offset="1" stop-color="#FF3254"/></linearGradient><linearGradient id="m" x1="20.56" y1="10.526" x2="20.474" y2="10.405" gradientUnits="userSpaceOnUse"><stop stop-color="#CE44FF"/><stop offset=".2" stop-color="#402FFF"/><stop offset=".4" stop-color="#32FF80"/><stop offset=".6" stop-color="#FFE400"/><stop offset=".8" stop-color="#FF8D2F"/><stop offset="1" stop-color="#FF3254"/></linearGradient><linearGradient id="n" x1="9.054" y1="39.587" x2="8.903" y2="39.511" gradientUnits="userSpaceOnUse"><stop stop-color="#CE44FF"/><stop offset=".2" stop-color="#402FFF"/><stop offset=".4" stop-color="#32FF80"/><stop offset=".6" stop-color="#FFE400"/><stop offset=".8" stop-color="#FF8D2F"/><stop offset="1" stop-color="#FF3254"/></linearGradient><linearGradient id="o" x1="8.889" y1="39.405" x2="8.799" y2="39.348" gradientUnits="userSpaceOnUse"><stop stop-color="#CE44FF"/><stop offset=".2" stop-color="#402FFF"/><stop offset=".4" stop-color="#32FF80"/><stop offset=".6" stop-color="#FFE400"/><stop offset=".8" stop-color="#FF8D2F"/><stop offset="1" stop-color="#FF3254"/></linearGradient><linearGradient id="p" x1="6.638" y1="36.51" x2="6.547" y2="36.454" gradientUnits="userSpaceOnUse"><stop stop-color="#CE44FF"/><stop offset=".2" stop-color="#402FFF"/><stop offset=".4" stop-color="#32FF80"/><stop offset=".6" stop-color="#FFE400"/><stop offset=".8" stop-color="#FF8D2F"/><stop offset="1" stop-color="#FF3254"/></linearGradient><linearGradient id="q" x1="1.111" y1="26.231" x2="1.021" y2="26.192" gradientUnits="userSpaceOnUse"><stop stop-color="#CE44FF"/><stop offset=".2" stop-color="#402FFF"/><stop offset=".4" stop-color="#32FF80"/><stop offset=".6" stop-color="#FFE400"/><stop offset=".8" stop-color="#FF8D2F"/><stop offset="1" stop-color="#FF3254"/></linearGradient><linearGradient id="r" x1="9.17" y1="39.755" x2="9.081" y2="39.702" gradientUnits="userSpaceOnUse"><stop stop-color="#CE44FF"/><stop offset=".2" stop-color="#402FFF"/><stop offset=".4" stop-color="#32FF80"/><stop offset=".6" stop-color="#FFE400"/><stop offset=".8" stop-color="#FF8D2F"/><stop offset="1" stop-color="#FF3254"/></linearGradient><linearGradient id="s" x1="9.288" y1="39.895" x2="9.193" y2="39.84" gradientUnits="userSpaceOnUse"><stop stop-color="#CE44FF"/><stop offset=".2" stop-color="#402FFF"/><stop offset=".4" stop-color="#32FF80"/><stop offset=".6" stop-color="#FFE400"/><stop offset=".8" stop-color="#FF8D2F"/><stop offset="1" stop-color="#FF3254"/></linearGradient><linearGradient id="t" x1="20.693" y1="51.513" x2="20.631" y2="51.454" gradientUnits="userSpaceOnUse"><stop stop-color="#CE44FF"/><stop offset=".2" stop-color="#402FFF"/><stop offset=".4" stop-color="#32FF80"/><stop offset=".6" stop-color="#FFE400"/><stop offset=".8" stop-color="#FF8D2F"/><stop offset="1" stop-color="#FF3254"/></linearGradient><linearGradient id="u" x1="19.834" y1="50.673" x2="19.759" y2="50.601" gradientUnits="userSpaceOnUse"><stop stop-color="#CE44FF"/><stop offset=".2" stop-color="#402FFF"/><stop offset=".4" stop-color="#32FF80"/><stop offset=".6" stop-color="#FFE400"/><stop offset=".8" stop-color="#FF8D2F"/><stop offset="1" stop-color="#FF3254"/></linearGradient><linearGradient id="v" x1="46.73" y1="32.839" x2="46.642" y2="32.741" gradientUnits="userSpaceOnUse"><stop stop-color="#CE44FF"/><stop offset=".2" stop-color="#402FFF"/><stop offset=".4" stop-color="#32FF80"/><stop offset=".6" stop-color="#FFE400"/><stop offset=".8" stop-color="#FF8D2F"/><stop offset="1" stop-color="#FF3254"/></linearGradient><clipPath id="a"><path fill="#fff" d="M.5 0h146v70H.5z"/></clipPath></defs></svg>