<?xml version="1.0" standalone="no"?>
<!DOCTYPE svg PUBLIC "-//W3C//DTD SVG 20010904//EN"
 "http://www.w3.org/TR/2001/REC-SVG-20010904/DTD/svg10.dtd">
<svg version="1.0" xmlns="http://www.w3.org/2000/svg"
 width="568.000000pt" height="568.000000pt" viewBox="0 0 568.000000 568.000000"
 preserveAspectRatio="xMidYMid meet">
<metadata>
Created by potrace 1.14, written by Peter Selinger 2001-2017
</metadata>
<g transform="translate(0.000000,568.000000) scale(0.100000,-0.100000)"
fill="#000000" stroke="none">
<path d="M1005 5070 c3 -5 10 -8 15 -5 4 3 10 2 12 -2 1 -5 41 -28 88 -52 47
-24 99 -52 115 -61 17 -9 57 -32 90 -50 108 -59 330 -194 333 -202 2 -4 8 -8
13 -8 21 0 435 -289 511 -356 15 -13 30 -24 33 -24 3 0 36 -25 73 -56 37 -31
78 -66 92 -77 90 -73 221 -193 359 -327 218 -212 338 -314 511 -433 112 -77
134 -89 308 -179 72 -38 132 -64 132 -58 0 5 -4 10 -9 10 -6 0 -53 27 -105 60
-53 33 -99 60 -104 60 -5 0 -17 9 -27 20 -10 11 -22 20 -27 20 -4 0 -27 14
-51 30 -23 17 -53 38 -67 48 -47 33 -215 166 -250 196 -74 66 -340 335 -406
410 -148 170 -171 195 -303 326 -193 191 -422 383 -636 531 l-30 21 30 -7 c45
-9 160 -66 340 -169 67 -38 228 -153 290 -208 16 -14 41 -36 55 -48 52 -45
140 -132 275 -275 254 -267 224 -240 243 -219 9 11 30 35 46 54 90 111 124
148 256 281 221 222 436 384 670 504 98 50 265 122 300 130 8 2 15 4 15 5 0 2
6 4 145 41 94 25 136 31 230 32 140 2 200 -6 299 -39 159 -53 285 -137 428
-284 56 -57 156 -194 180 -245 10 -22 21 -42 24 -45 19 -15 90 -234 105 -320
2 -14 7 -36 10 -50 3 -14 8 -51 9 -84 5 -83 17 -85 14 -1 -2 57 -15 140 -33
210 -2 6 -6 27 -11 48 -4 20 -11 40 -16 43 -5 3 -9 14 -9 25 0 10 -4 27 -9 37
-5 9 -30 60 -56 113 -25 53 -54 105 -63 115 -9 11 -30 39 -47 64 -78 116 -286
289 -420 349 -27 13 -59 27 -70 32 -11 5 -29 11 -40 14 -11 2 -47 10 -80 18
-71 17 -88 18 -180 19 -110 2 -181 -9 -335 -50 -48 -13 -214 -75 -275 -103
-27 -12 -52 -23 -55 -23 -3 -1 -21 -10 -40 -22 -19 -11 -54 -29 -77 -40 -24
-10 -43 -22 -43 -26 0 -5 -5 -8 -11 -8 -6 0 -50 -26 -97 -57 -48 -32 -91 -60
-97 -62 -5 -2 -12 -7 -15 -11 -3 -3 -23 -19 -45 -36 -67 -50 -69 -51 -180
-150 -145 -129 -237 -226 -398 -416 l-48 -57 -52 55 c-29 31 -72 77 -95 102
-218 233 -448 448 -531 496 -9 5 -22 16 -29 23 -7 7 -17 13 -22 13 -5 0 -15 6
-22 13 -18 17 -100 68 -173 108 -141 76 -215 109 -289 130 -44 11 -87 25 -95
30 -24 13 -191 69 -191 64 0 -2 -19 2 -41 11 -23 8 -60 16 -83 19 -23 2 -52 7
-66 10 -55 12 -202 16 -195 5z"/>
<path d="M645 4992 l-99 -48 65 -36 c35 -19 100 -55 144 -78 44 -24 145 -80
225 -125 80 -45 165 -93 190 -107 25 -14 80 -46 123 -72 43 -25 83 -46 88 -46
5 0 9 -4 9 -10 0 -5 5 -10 10 -10 6 0 36 -16 66 -35 30 -19 57 -35 60 -35 3 0
32 -18 65 -40 33 -22 62 -40 64 -40 9 0 260 -165 263 -172 2 -5 8 -8 14 -8 16
0 507 -343 565 -395 6 -5 24 -20 40 -32 48 -36 257 -202 273 -215 8 -7 80 -63
162 -123 288 -215 520 -342 776 -425 51 -16 103 -32 115 -34 19 -4 76 -15 157
-31 91 -18 431 -25 495 -11 11 2 34 5 50 5 20 1 26 4 17 10 -7 4 -30 6 -50 5
-146 -12 -315 -1 -477 31 -100 20 -304 82 -319 96 -6 5 -16 9 -24 9 -19 0
-242 109 -333 163 -80 47 -220 138 -229 148 -3 3 -39 30 -80 61 -41 30 -86 65
-100 78 -14 12 -45 39 -70 59 -53 43 -41 32 -231 212 -214 204 -219 209 -354
323 -131 112 -438 346 -454 346 -5 0 -11 4 -13 8 -8 22 -348 236 -583 367
-172 96 -488 255 -508 255 -7 0 -58 -22 -112 -48z"/>
<path d="M371 4804 c-33 -36 -59 -70 -56 -75 3 -4 28 -21 55 -36 28 -15 50
-31 50 -35 0 -5 5 -8 10 -8 6 0 43 -21 84 -47 79 -51 161 -102 291 -183 44
-27 85 -54 92 -60 7 -5 14 -10 16 -10 5 0 433 -263 502 -308 22 -15 42 -27 45
-27 3 0 23 -12 45 -26 22 -14 130 -81 240 -149 110 -67 208 -129 218 -138 9
-8 17 -11 17 -7 0 4 8 1 18 -7 9 -8 139 -89 287 -181 149 -91 335 -209 415
-262 382 -251 558 -350 762 -430 103 -40 275 -92 333 -101 11 -2 31 -5 45 -9
166 -37 436 -37 622 0 114 22 172 37 281 72 71 22 48 32 -30 13 -37 -10 -88
-21 -113 -24 -25 -3 -67 -10 -95 -14 -102 -15 -485 -5 -515 13 -3 2 -24 6 -48
10 -175 26 -498 152 -722 281 -102 59 -331 216 -376 258 -7 6 -24 20 -40 31
-15 11 -44 34 -64 50 -20 17 -53 44 -74 60 -22 17 -44 35 -50 40 -85 80 -416
322 -671 492 -110 73 -205 137 -212 143 -7 5 -15 10 -18 10 -3 0 -43 24 -88
53 -116 73 -115 72 -182 112 -33 19 -67 40 -75 45 -18 12 -210 123 -265 155
-116 65 -296 165 -335 187 -167 92 -328 178 -332 178 -3 0 -33 -30 -67 -66z"/>
<path d="M196 4566 c-26 -45 -46 -86 -46 -89 0 -3 44 -38 98 -76 171 -124 277
-201 292 -214 16 -13 68 -49 200 -137 77 -52 685 -417 720 -433 8 -4 29 -16
45 -26 78 -48 916 -533 1035 -599 25 -14 50 -28 55 -32 6 -4 41 -24 78 -44 37
-20 84 -46 105 -58 69 -39 367 -186 432 -213 153 -63 386 -129 500 -141 30 -3
58 -8 62 -10 4 -3 56 -7 115 -9 59 -3 110 -5 113 -6 3 -1 7 -1 10 -1 3 0 55 3
115 6 105 6 124 8 205 22 73 12 87 16 163 35 122 31 366 135 375 160 2 5 9 9
17 9 7 0 18 7 25 15 12 15 0 22 -14 8 -3 -4 -12 -8 -19 -9 -7 -2 -53 -19 -104
-38 -50 -19 -102 -38 -115 -40 -13 -3 -50 -12 -83 -20 -137 -33 -248 -44 -419
-40 -94 2 -182 5 -196 8 -14 2 -45 7 -70 11 -91 13 -107 16 -205 41 -102 26
-240 70 -307 99 -21 8 -40 16 -43 16 -2 0 -62 29 -133 64 -167 82 -272 145
-632 384 -163 108 -305 201 -315 208 -11 6 -64 39 -118 72 -54 34 -102 61
-107 61 -4 0 -10 4 -12 8 -1 4 -21 18 -43 31 -22 13 -56 34 -75 46 -46 29
-546 332 -585 355 -66 37 -460 279 -615 377 -208 131 -183 115 -323 206 -67
42 -124 77 -128 77 -4 0 -28 -38 -53 -84z"/>
<path d="M96 4348 c-3 -18 -9 -44 -12 -58 -3 -14 -10 -51 -16 -83 l-12 -58 40
-35 c79 -71 148 -129 168 -144 12 -8 30 -23 41 -33 63 -59 525 -387 545 -387
5 0 10 -4 12 -8 2 -5 84 -59 183 -121 207 -130 180 -113 315 -191 272 -158
540 -300 890 -474 300 -149 399 -197 545 -261 159 -71 480 -178 570 -191 11
-1 52 -9 90 -17 39 -8 77 -15 85 -15 8 0 40 -4 70 -8 66 -11 383 -12 460 -2
129 16 244 42 360 81 36 11 67 22 70 22 3 1 22 9 44 18 21 9 40 17 43 17 6 0
183 88 208 103 50 31 171 112 182 121 6 6 30 26 52 45 23 19 39 36 37 39 -3 2
-38 -16 -78 -41 -169 -105 -415 -206 -563 -231 -16 -2 -54 -9 -84 -15 -153
-31 -445 -33 -626 -5 -22 4 -47 8 -55 9 -205 29 -477 123 -715 246 -172 89
-200 104 -205 109 -3 3 -18 12 -35 20 -16 8 -59 31 -95 51 -36 20 -92 51 -125
69 -33 18 -186 105 -340 193 -154 88 -290 165 -302 171 -13 6 -23 14 -23 19 0
4 -4 7 -9 7 -4 0 -41 19 -80 43 -39 23 -79 47 -89 52 -10 6 -53 32 -97 58
-103 62 -95 57 -200 118 -49 29 -98 59 -108 67 -9 8 -17 12 -17 8 0 -3 -21 9
-47 27 -27 18 -55 37 -63 41 -8 4 -24 12 -35 19 -11 7 -63 38 -115 70 -52 32
-104 63 -115 70 -76 45 -446 297 -570 387 -82 60 -155 109 -161 110 -7 0 -15
-15 -18 -32z"/>
<path d="M45 3938 c2 -62 6 -126 10 -143 15 -73 28 -111 43 -125 33 -31 344
-285 360 -295 9 -5 19 -13 22 -16 26 -33 578 -409 600 -409 5 0 10 -4 10 -10
0 -5 5 -10 11 -10 6 0 31 -13 56 -30 24 -16 46 -30 49 -30 3 0 25 -14 50 -30
24 -17 44 -28 44 -24 0 4 8 1 18 -7 9 -8 28 -20 41 -27 178 -101 546 -288 687
-351 49 -21 114 -50 144 -64 266 -120 692 -272 875 -312 11 -3 40 -9 65 -15
46 -10 79 -16 140 -26 19 -3 46 -7 60 -10 100 -18 388 -24 515 -11 114 12 136
16 233 38 52 12 99 22 105 23 7 2 19 6 27 9 8 3 51 18 95 33 99 33 246 102
388 182 111 62 139 83 215 165 24 26 46 47 50 47 23 0 127 116 235 260 43 58
85 113 93 123 8 9 14 20 14 23 0 3 17 31 38 62 68 100 193 324 197 352 0 3 4
10 8 17 16 25 70 203 82 273 16 87 22 187 12 197 -4 3 -7 -5 -8 -18 -2 -51 -7
-104 -9 -109 -1 -3 -2 -8 -1 -13 3 -16 -32 -155 -54 -217 -12 -36 -23 -67 -23
-70 1 -14 -93 -203 -125 -253 -20 -32 -37 -60 -37 -64 0 -15 -199 -300 -272
-388 -90 -109 -118 -134 -182 -169 -36 -20 -83 -46 -103 -59 -176 -110 -466
-207 -718 -241 -104 -14 -466 -16 -520 -3 -12 3 -48 8 -80 12 -204 25 -513
123 -790 250 -351 161 -741 354 -944 467 -57 32 -105 58 -108 58 -5 0 -418
235 -453 258 -14 9 -27 17 -30 17 -3 0 -19 10 -37 23 -17 12 -36 22 -42 22 -6
0 -11 5 -11 10 0 6 -4 10 -10 10 -8 0 -259 156 -285 177 -5 5 -44 30 -85 57
-72 47 -360 254 -370 266 -3 3 -48 39 -100 80 -52 41 -97 77 -100 80 -11 12
-88 70 -94 70 -3 0 -4 -51 -1 -112z"/>
<path d="M5631 3874 c0 -11 3 -14 6 -6 3 7 2 16 -1 19 -3 4 -6 -2 -5 -13z"/>
<path d="M5630 3830 c0 -11 2 -20 4 -20 2 0 6 9 9 20 3 11 1 20 -4 20 -5 0 -9
-9 -9 -20z"/>
<path d="M130 3551 c0 -15 92 -216 120 -261 224 -367 261 -419 330 -468 30
-21 79 -55 107 -75 29 -20 57 -37 62 -37 5 0 11 -4 13 -8 10 -25 352 -237 628
-389 79 -44 402 -205 414 -207 6 -1 20 -7 31 -13 98 -54 483 -199 710 -268
240 -73 427 -109 665 -130 91 -8 425 -5 425 4 0 1 23 4 50 7 79 8 96 11 230
40 130 29 261 74 397 137 42 19 78 33 81 31 2 -2 59 53 126 122 68 69 121 127
118 130 -2 3 -40 -11 -83 -32 -130 -60 -314 -126 -391 -140 -21 -4 -42 -9 -48
-12 -5 -3 -18 -7 -30 -8 -11 -1 -47 -7 -80 -13 -33 -6 -85 -13 -115 -16 -30
-4 -71 -8 -90 -10 -43 -6 -301 -6 -352 0 -21 2 -59 6 -85 10 -27 4 -61 8 -78
10 -42 4 -155 27 -255 50 -142 33 -313 91 -595 202 -152 59 -154 60 -295 122
-52 23 -101 41 -107 41 -7 0 -13 5 -13 10 0 6 -6 10 -13 10 -17 0 -396 187
-527 260 -52 29 -120 66 -150 83 -156 86 -551 338 -705 451 -70 51 -84 62
-133 103 -15 13 -30 23 -34 23 -4 0 -13 7 -22 15 -20 20 -248 199 -281 221
-15 10 -25 12 -25 5z"/>
<path d="M700 2648 c0 -15 16 -33 160 -188 58 -62 120 -129 139 -149 396 -428
549 -573 640 -607 31 -12 81 -33 111 -46 30 -14 107 -44 170 -67 63 -24 124
-47 135 -52 18 -8 189 -64 225 -74 154 -42 243 -64 380 -90 13 -3 40 -7 60
-10 20 -3 47 -7 60 -10 102 -20 458 -27 595 -12 124 14 254 37 358 63 56 14
109 27 117 29 8 2 20 4 25 4 10 1 28 16 165 139 66 60 101 92 203 186 35 33
30 33 -79 -4 -83 -29 -263 -79 -309 -86 -11 -2 -47 -8 -80 -13 -152 -27 -504
-36 -655 -18 -218 27 -422 72 -650 144 -63 20 -119 38 -125 39 -17 4 -229 85
-262 100 -17 8 -34 14 -37 14 -3 0 -25 8 -49 19 -23 10 -96 42 -162 71 -156
69 -556 270 -575 290 -3 3 -16 11 -30 17 -63 31 -195 111 -360 218 -157 103
-170 110 -170 93z"/>
<path d="M1676 1641 c12 -11 122 -108 159 -140 17 -14 57 -49 90 -76 33 -28
65 -55 70 -61 24 -26 260 -218 346 -281 130 -95 174 -122 195 -121 11 0 46 -4
79 -8 76 -10 334 -11 445 -2 47 5 112 9 146 11 33 2 67 8 75 12 18 11 202 148
209 155 3 4 23 19 45 36 35 25 107 80 224 172 19 15 41 32 50 39 16 11 -7 8
-99 -12 -14 -3 -41 -8 -60 -11 -19 -3 -54 -10 -77 -15 -24 -5 -46 -9 -50 -8
-5 1 -10 0 -13 -1 -34 -13 -221 -25 -395 -25 -194 1 -237 4 -405 31 -135 21
-131 20 -285 60 -77 19 -144 36 -150 38 -25 6 -214 68 -245 81 -19 7 -71 27
-115 44 -44 16 -112 43 -152 60 -71 31 -106 40 -87 22z"/>
<path d="M2582 918 c16 -15 47 -36 68 -45 8 -4 17 -9 20 -12 7 -8 46 -31 109
-63 78 -41 130 -38 223 10 115 61 213 114 218 119 3 3 -47 2 -110 -2 -146 -8
-318 -9 -443 -1 -80 5 -96 4 -85 -6z"/>
</g>
</svg>
