<svg viewBox="0 0 350 59" fill="none" xmlns="http://www.w3.org/2000/svg"><path d="M0 37.863v7.36h18.847c3.303 0 6.082-.539 8.336-1.616 2.255-1.077 3.956-2.54 5.105-4.39 1.163-1.863 1.745-3.981 1.745-6.354 0-2.198-.46-4.09-1.379-5.678-.919-1.601-2.118-2.846-3.597-3.734a9.782 9.782 0 0 0-4.717-1.441v-.437c1.537-.35 2.9-.939 4.093-1.769l.133-.095c-2.602.415-5.106 1.163-7.488 2.307a62.402 62.402 0 0 0-6.454 3.597h2.522c1.493 0 2.778.27 3.855.808 1.092.539 1.932 1.281 2.52 2.227.59.947.884 2.038.884 3.276 0 1.689-.596 3.043-1.788 4.062-1.192 1.004-3.088 1.507-5.687 1.507H9.327v-8.156a76.902 76.902 0 0 0-5.034 4.247A73.287 73.287 0 0 0 0 37.864Z" fill="url(#a)"/><path fill-rule="evenodd" clip-rule="evenodd" d="M0 33.463a79.533 79.533 0 0 1 2.255-2.157c4.147-3.813 10.146-8.526 17.524-12.069 3.696-1.774 7.605-2.677 11.628-2.929.602-1.263.903-2.711.903-4.343 0-2.242-.546-4.222-1.637-5.94-1.092-1.733-2.721-3.086-4.89-4.062C23.615.988 20.908.5 17.663.5H0v32.963Zm16.241-14.248H9.327V8.143h7.086c2.068 0 3.662.495 4.782 1.485 1.135.99 1.702 2.293 1.702 3.909 0 1.18-.295 2.19-.883 3.035-.575.845-1.364 1.5-2.37 1.966-.99.451-2.125.677-3.403.677Z" fill="url(#b)"/><path d="M39.933 19.755a13.17 13.17 0 0 0-.391 1.447l8.486.699c.039-.135.082-.266.13-.395a71.907 71.907 0 0 0-4.299-1.056c-1.32-.28-2.63-.514-3.926-.695Z" fill="url(#c)"/><path d="M50.293 18.923a77.19 77.19 0 0 0-5.813-1.483c-1.04-.22-2.08-.415-3.118-.58.223-.325.463-.64.721-.943 1.264-1.5 2.894-2.65 4.89-3.45 2.01-.815 4.337-1.223 6.979-1.223 1.838 0 3.597.218 5.277.655 1.694.437 3.195 1.114 4.502 2.031a9.826 9.826 0 0 1 3.123 3.538c.761 1.426 1.142 3.137 1.142 5.131v3.057c-3.01-1.327-6.089-2.63-9.2-3.824-.102-1.12-.525-2.007-1.269-2.661-.847-.757-2.053-1.136-3.618-1.136-1.474 0-2.68.296-3.616.888Z" fill="url(#d)"/><path fill-rule="evenodd" clip-rule="evenodd" d="M57.233 24.522c-.474.177-1.065.322-1.773.436-1.178.175-2.729.364-4.653.568a29.73 29.73 0 0 0-4.696.83c-1.479.392-2.8.975-3.963 1.746a8.27 8.27 0 0 0-2.757 3.058c-.675 1.266-1.012 2.831-1.012 4.695 0 2.213.473 4.061 1.421 5.546.962 1.47 2.269 2.584 3.92 3.341 1.652.743 3.533 1.114 5.644 1.114 1.637 0 3.08-.218 4.33-.655 1.249-.451 2.318-1.07 3.209-1.856a9.45 9.45 0 0 0 2.132-2.773h.259v4.65h8.702v-16.21c-3.541-1.578-7.146-3.118-10.763-4.49Zm-1.666 14.106c-1.034.539-2.225.808-3.575.808-1.408 0-2.57-.328-3.49-.983-.905-.67-1.357-1.638-1.357-2.904 0-.873.223-1.602.668-2.184.445-.597 1.07-1.07 1.874-1.42.804-.349 1.745-.603 2.822-.764a502.01 502.01 0 0 1 1.68-.24 81.95 81.95 0 0 0 1.852-.327c.618-.131 1.17-.27 1.659-.415.502-.16.897-.335 1.184-.524v3.56c0 1.178-.294 2.234-.883 3.166-.588.931-1.4 1.674-2.434 2.227Z" fill="url(#e)"/><path d="M73.948 31.485c.27 2.227.859 4.258 1.77 6.095 1.306 2.606 3.173 4.644 5.6 6.114 2.441 1.456 5.356 2.184 8.745 2.184 2.944 0 5.493-.546 7.647-1.638 2.154-1.092 3.841-2.606 5.062-4.542.075-.119.148-.24.22-.36a194.632 194.632 0 0 1-9.244-1.946 5.408 5.408 0 0 1-.755.472c-.833.437-1.774.655-2.822.655-1.422 0-2.664-.393-3.727-1.18-.8-.591-1.465-1.385-1.996-2.38-3.52-1.022-7.085-2.18-10.5-3.474Z" fill="url(#f)"/><path d="m95.73 34.698.187.042c3.059.695 5.893 1.264 8.328 1.702.327-1.1.525-2.27.595-3.514h-8.66a8.271 8.271 0 0 1-.45 1.77Z" fill="url(#g)"/><path d="M110.714 40.519v4.704h9.176V41.63c-1.14-.149-2.195-.3-3.144-.44l-.709-.103c-1.948-.286-3.23-.475-3.866-.475-.346 0-.839-.032-1.457-.093Z" fill="url(#h)"/><path d="M119.89 38.53c-.97-.13-1.878-.26-2.711-.382l-.78-.115c-1.824-.27-3.355-.495-4.228-.495-.288 0-.78-.036-1.457-.11V.5h9.176v23.912h.496l10.597-12.731h10.533l-12.27 14.53 8.744 12.891c-3.585.389-7.195.378-10.558.178l-5.055-7.585-2.487 2.878v3.956Z" fill="url(#i)"/><path d="m129.548 42.454 1.845 2.769h10.748l-2.214-3.265c-3.522.498-7.061.6-10.379.496Z" fill="url(#j)"/><path d="M146.971 40.343a11.426 11.426 0 0 0 3.091 2.652c2.039 1.165 4.301 1.748 6.785 1.748 1.752 0 3.26-.263 4.524-.787 1.263-.524 2.297-1.2 3.101-2.03.805-.83 1.408-1.711 1.81-2.643h.387v6.136c0 2.3-.653 3.938-1.96 4.914-1.292.99-2.936 1.485-4.932 1.485-1.336 0-2.47-.182-3.404-.546-.919-.35-1.658-.815-2.218-1.398-.56-.582-.969-1.208-1.228-1.878l-8.487 1.158c.374 1.761 1.185 3.348 2.434 4.76 1.25 1.412 2.93 2.526 5.041 3.341 2.125.83 4.674 1.245 7.646 1.245 3.16 0 5.953-.488 8.379-1.463 2.442-.96 4.351-2.402 5.73-4.324 1.378-1.922 2.068-4.31 2.068-7.163V17.895a13.223 13.223 0 0 0-3.107.03c-3.493.432-5.922 1.645-7.818 3.259.43.59.79 1.273 1.081 2.049.546 1.44.819 3.144.819 5.11 0 1.965-.28 3.654-.84 5.066-.546 1.398-1.336 2.475-2.37 3.232-1.019.742-2.269 1.114-3.748 1.114-1.508 0-2.778-.379-3.812-1.136a6.506 6.506 0 0 1-1.35-1.39c-1.911 2.12-4.313 3.966-7.622 5.114Z" fill="url(#k)"/><path d="M162.448 19.195c-.796-.366-1.694-.548-2.693-.548-1.508 0-2.778.415-3.812 1.245-1.034.815-1.817 1.95-2.348 3.406-.531 1.456-.797 3.138-.797 5.045 0 1.4.139 2.663.417 3.79-1.908 2.415-4.226 4.38-7.748 5.472l-.216.066a2.138 2.138 0 0 1-.035-.07c-1.192-2.43-1.788-5.502-1.788-9.215 0-3.8.61-6.973 1.831-9.52 1.221-2.549 2.843-4.456 4.868-5.722 2.039-1.267 4.272-1.9 6.699-1.9 1.852 0 3.403.32 4.652.96 1.25.627 2.255 1.413 3.016 2.36a13.397 13.397 0 0 1 1.494 2.167 16.316 16.316 0 0 0-3.54 2.464Z" fill="url(#l)"/><path d="M166.626 16.42c1.618-.744 3.474-1.28 5.638-1.547a16.346 16.346 0 0 1 3.474-.068V11.68h-9.112v4.74Z" fill="url(#m)"/><path d="M183.04 21.112v24.11h9.176V30.4c-.75-.799-1.477-1.6-2.189-2.385l-.002-.002c-.285-.313-.566-.624-.846-.93-2.089-2.29-4.067-4.367-6.139-5.971Z" fill="url(#n)"/><path d="m192.223 25.892-.134-.147-.684-.75c-2.555-2.8-5.225-5.642-8.365-7.621V11.68h8.896v5.852h.344c.603-2.082 1.616-3.654 3.037-4.717 1.422-1.077 3.059-1.616 4.911-1.616.46 0 .955.03 1.487.088.531.058.998.138 1.4.24v8.254c-.431-.13-1.027-.247-1.788-.349a15.851 15.851 0 0 0-2.089-.153c-1.35 0-2.556.299-3.619.895a6.55 6.55 0 0 0-2.499 2.446c-.55.957-.849 2.047-.897 3.271Z" fill="url(#o)"/><path d="M208.953 40.646a14.559 14.559 0 0 0 3.634 3.07c2.441 1.441 5.335 2.162 8.68 2.162 3.346 0 6.233-.72 8.659-2.162 2.442-1.456 4.323-3.48 5.644-6.07 1.321-2.607 1.982-5.627 1.982-9.063 0-.237-.004-.473-.01-.706l-.963.818-.307.262c-3.432 2.922-6.999 5.958-10.965 8.238a5.298 5.298 0 0 1-2.562 1.332c-4.074 1.889-8.587 2.87-13.792 2.12Z" fill="url(#p)"/><path d="M217.286 37.23c-2.541.63-5.249.794-8.211.326a18.158 18.158 0 0 1-2.419-.554c-1.115-2.456-1.673-5.263-1.673-8.42 0-3.464.661-6.492 1.982-9.084 1.321-2.605 3.195-4.629 5.622-6.07 2.441-1.456 5.335-2.184 8.68-2.184 3.346 0 6.233.728 8.659 2.184 2.442 1.441 4.323 3.465 5.644 6.07.731 1.435 1.26 3.004 1.587 4.706-.828.69-1.646 1.386-2.456 2.075l-.072.061c-2.25 1.915-4.45 3.785-6.687 5.44.188-1.013.283-2.1.283-3.263 0-1.95-.266-3.69-.797-5.219-.517-1.528-1.285-2.737-2.305-3.625-1.019-.888-2.29-1.332-3.812-1.332-1.537 0-2.829.444-3.878 1.332-1.034.888-1.816 2.097-2.347 3.625-.517 1.529-.776 3.269-.776 5.22 0 1.95.259 3.69.776 5.218.505 1.455 1.239 2.62 2.2 3.495Z" fill="url(#q)"/><path d="M243.518 23.105v9.933c.014 2.62.488 4.87 1.422 6.747.947 1.878 2.261 3.327 3.941 4.346 1.681 1.02 3.626 1.529 5.838 1.529 2.484 0 4.588-.597 6.311-1.791a9.88 9.88 0 0 0 3.726-4.739h.345v6.093h8.81V24.918c-2.722-2.667-5.546-4.999-9.176-6.282V30.94c.014 1.5-.28 2.76-.883 3.778-.589 1.02-1.365 1.79-2.327 2.315a6.528 6.528 0 0 1-3.101.764c-1.738 0-3.124-.575-4.158-1.725-1.033-1.15-1.558-2.715-1.572-4.695V18.336c-3.255.94-6.248 2.655-9.176 4.769Z" fill="url(#r)"/><path d="M252.694 15.157c-3.32.83-6.342 2.358-9.176 4.221v-7.697h9.176v3.476Z" fill="url(#s)"/><path d="M264.735 15.409c3.668 1.094 6.608 3.084 9.176 5.329V11.68h-9.176v3.728Z" fill="url(#t)"/><path d="M281.25 32.111v13.112h9.176v-8.415c-3.671-.726-6.598-2.526-9.176-4.697Z" fill="url(#u)"/><path d="M290.426 33.663c-3.602-.867-6.406-3.013-9.176-5.676V11.68h8.746v5.918h.387c.733-1.951 1.96-3.494 3.684-4.63 1.723-1.15 3.812-1.725 6.268-1.725 2.297 0 4.3.51 6.009 1.529 1.709 1.019 3.037 2.475 3.985 4.367.948 1.878 1.422 4.12 1.422 6.726v.6c-1.522 1.042-2.916 2.182-4.257 3.279l-.448.366c-1.503 1.227-2.952 2.383-4.471 3.345v-5.93c.014-2.053-.503-3.654-1.551-4.805-1.048-1.164-2.492-1.747-4.33-1.747-1.235 0-2.326.27-3.274.808-.933.539-1.665 1.325-2.197 2.359-.517 1.019-.782 2.25-.797 3.69v7.832Z" fill="url(#v)"/><path d="M302.575 34.999v10.224h9.176V28.257a108.97 108.97 0 0 0-2.522 2.02l-.281.23c-1.952 1.592-3.999 3.237-6.373 4.492Z" fill="url(#w)"/><path d="M317.992 24.6a30.24 30.24 0 0 0-.237 3.895c0 3.742.589 6.901 1.766 9.478 1.192 2.562 2.8 4.506 4.825 5.83 2.039 1.31 4.315 1.966 6.828 1.966 1.781 0 3.289-.299 4.524-.895 1.249-.597 2.261-1.347 3.037-2.25.789-.917 1.4-1.841 1.831-2.773h.387v5.372H350V30.428c-2.854-2.061-5.77-3.635-8.829-4.766a39.134 39.134 0 0 0-.356-.13 17.8 17.8 0 0 1 .224 2.92c0 1.994-.28 3.734-.84 5.219-.545 1.485-1.335 2.642-2.369 3.472-1.02.815-2.269 1.223-3.748 1.223-1.508 0-2.779-.415-3.812-1.245-1.02-.844-1.803-2.009-2.348-3.494-.532-1.5-.797-3.224-.797-5.175 0-1.91.258-3.595.776-5.052a57.217 57.217 0 0 0-5.94.294 16.017 16.017 0 0 0-3.969.906Z" fill="url(#x)"/><path d="M339.607 21.919c-.475-.842-1.06-1.532-1.755-2.071-1.034-.8-2.291-1.201-3.77-1.201-1.508 0-2.779.415-3.812 1.245a6.521 6.521 0 0 0-.531.476c-2.572-.106-5.255-.013-8.074.266a19.09 19.09 0 0 0-2.949.527c.244-.8.534-1.55.87-2.252 1.22-2.562 2.843-4.477 4.868-5.743 2.039-1.282 4.272-1.922 6.699-1.922 1.852 0 3.396.32 4.631.96 1.249.627 2.254 1.413 3.015 2.36.776.931 1.364 1.848 1.767 2.75h.28V.5H350v26.215a38.973 38.973 0 0 0-7.791-3.942 37.21 37.21 0 0 0-2.602-.854Z" fill="url(#y)"/><path d="M83.321 31.42c-3.236-.983-6.467-2.08-9.538-3.288.055-3.25.707-6.113 1.956-8.59 1.321-2.606 3.195-4.637 5.622-6.093 2.427-1.47 5.313-2.205 8.66-2.205 2.885 0 5.413.531 7.581 1.594 2.168 1.063 3.884 2.555 5.148 4.477 1.264 1.921 1.96 4.178 2.09 6.77h-8.66c-.244-1.675-.89-3.021-1.938-4.04-1.034-1.034-2.391-1.551-4.071-1.551-1.422 0-2.664.393-3.727 1.18-1.048.77-1.866 1.899-2.455 3.384-.589 1.485-.883 3.283-.883 5.394 0 1.07.072 2.059.215 2.968Z" fill="url(#z)"/><defs><linearGradient id="a" x1="340.21" y1="29.167" x2="264.724" y2="180.928" gradientUnits="userSpaceOnUse"><stop stop-color="#AE00EB"/><stop offset=".244" stop-color="#2A19F4"/><stop offset=".4" stop-color="#00E456"/><stop offset=".6" stop-color="#CEB800"/><stop offset=".8" stop-color="#EF6C00"/><stop offset="1" stop-color="#F80029"/></linearGradient><linearGradient id="b" x1="340.21" y1="29.167" x2="264.724" y2="180.928" gradientUnits="userSpaceOnUse"><stop stop-color="#AE00EB"/><stop offset=".244" stop-color="#2A19F4"/><stop offset=".4" stop-color="#00E456"/><stop offset=".6" stop-color="#CEB800"/><stop offset=".8" stop-color="#EF6C00"/><stop offset="1" stop-color="#F80029"/></linearGradient><linearGradient id="c" x1="340.21" y1="29.167" x2="264.724" y2="180.928" gradientUnits="userSpaceOnUse"><stop stop-color="#AE00EB"/><stop offset=".244" stop-color="#2A19F4"/><stop offset=".4" stop-color="#00E456"/><stop offset=".6" stop-color="#CEB800"/><stop offset=".8" stop-color="#EF6C00"/><stop offset="1" stop-color="#F80029"/></linearGradient><linearGradient id="d" x1="340.21" y1="29.167" x2="264.724" y2="180.928" gradientUnits="userSpaceOnUse"><stop stop-color="#AE00EB"/><stop offset=".244" stop-color="#2A19F4"/><stop offset=".4" stop-color="#00E456"/><stop offset=".6" stop-color="#CEB800"/><stop offset=".8" stop-color="#EF6C00"/><stop offset="1" stop-color="#F80029"/></linearGradient><linearGradient id="e" x1="340.21" y1="29.167" x2="264.724" y2="180.928" gradientUnits="userSpaceOnUse"><stop stop-color="#AE00EB"/><stop offset=".244" stop-color="#2A19F4"/><stop offset=".4" stop-color="#00E456"/><stop offset=".6" stop-color="#CEB800"/><stop offset=".8" stop-color="#EF6C00"/><stop offset="1" stop-color="#F80029"/></linearGradient><linearGradient id="f" x1="340.21" y1="29.167" x2="264.724" y2="180.928" gradientUnits="userSpaceOnUse"><stop stop-color="#AE00EB"/><stop offset=".244" stop-color="#2A19F4"/><stop offset=".4" stop-color="#00E456"/><stop offset=".6" stop-color="#CEB800"/><stop offset=".8" stop-color="#EF6C00"/><stop offset="1" stop-color="#F80029"/></linearGradient><linearGradient id="g" x1="340.21" y1="29.167" x2="264.724" y2="180.928" gradientUnits="userSpaceOnUse"><stop stop-color="#AE00EB"/><stop offset=".244" stop-color="#2A19F4"/><stop offset=".4" stop-color="#00E456"/><stop offset=".6" stop-color="#CEB800"/><stop offset=".8" stop-color="#EF6C00"/><stop offset="1" stop-color="#F80029"/></linearGradient><linearGradient id="h" x1="340.21" y1="29.167" x2="264.724" y2="180.928" gradientUnits="userSpaceOnUse"><stop stop-color="#AE00EB"/><stop offset=".244" stop-color="#2A19F4"/><stop offset=".4" stop-color="#00E456"/><stop offset=".6" stop-color="#CEB800"/><stop offset=".8" stop-color="#EF6C00"/><stop offset="1" stop-color="#F80029"/></linearGradient><linearGradient id="i" x1="340.21" y1="29.167" x2="264.724" y2="180.928" gradientUnits="userSpaceOnUse"><stop stop-color="#AE00EB"/><stop offset=".244" stop-color="#2A19F4"/><stop offset=".4" stop-color="#00E456"/><stop offset=".6" stop-color="#CEB800"/><stop offset=".8" stop-color="#EF6C00"/><stop offset="1" stop-color="#F80029"/></linearGradient><linearGradient id="j" x1="340.21" y1="29.167" x2="264.724" y2="180.928" gradientUnits="userSpaceOnUse"><stop stop-color="#AE00EB"/><stop offset=".244" stop-color="#2A19F4"/><stop offset=".4" stop-color="#00E456"/><stop offset=".6" stop-color="#CEB800"/><stop offset=".8" stop-color="#EF6C00"/><stop offset="1" stop-color="#F80029"/></linearGradient><linearGradient id="k" x1="340.21" y1="29.167" x2="264.724" y2="180.928" gradientUnits="userSpaceOnUse"><stop stop-color="#AE00EB"/><stop offset=".244" stop-color="#2A19F4"/><stop offset=".4" stop-color="#00E456"/><stop offset=".6" stop-color="#CEB800"/><stop offset=".8" stop-color="#EF6C00"/><stop offset="1" stop-color="#F80029"/></linearGradient><linearGradient id="l" x1="340.21" y1="29.167" x2="264.724" y2="180.928" gradientUnits="userSpaceOnUse"><stop stop-color="#AE00EB"/><stop offset=".244" stop-color="#2A19F4"/><stop offset=".4" stop-color="#00E456"/><stop offset=".6" stop-color="#CEB800"/><stop offset=".8" stop-color="#EF6C00"/><stop offset="1" stop-color="#F80029"/></linearGradient><linearGradient id="m" x1="340.21" y1="29.167" x2="264.724" y2="180.928" gradientUnits="userSpaceOnUse"><stop stop-color="#AE00EB"/><stop offset=".244" stop-color="#2A19F4"/><stop offset=".4" stop-color="#00E456"/><stop offset=".6" stop-color="#CEB800"/><stop offset=".8" stop-color="#EF6C00"/><stop offset="1" stop-color="#F80029"/></linearGradient><linearGradient id="n" x1="340.21" y1="29.167" x2="264.724" y2="180.928" gradientUnits="userSpaceOnUse"><stop stop-color="#AE00EB"/><stop offset=".244" stop-color="#2A19F4"/><stop offset=".4" stop-color="#00E456"/><stop offset=".6" stop-color="#CEB800"/><stop offset=".8" stop-color="#EF6C00"/><stop offset="1" stop-color="#F80029"/></linearGradient><linearGradient id="o" x1="340.21" y1="29.167" x2="264.724" y2="180.928" gradientUnits="userSpaceOnUse"><stop stop-color="#AE00EB"/><stop offset=".244" stop-color="#2A19F4"/><stop offset=".4" stop-color="#00E456"/><stop offset=".6" stop-color="#CEB800"/><stop offset=".8" stop-color="#EF6C00"/><stop offset="1" stop-color="#F80029"/></linearGradient><linearGradient id="p" x1="340.21" y1="29.167" x2="264.724" y2="180.928" gradientUnits="userSpaceOnUse"><stop stop-color="#AE00EB"/><stop offset=".244" stop-color="#2A19F4"/><stop offset=".4" stop-color="#00E456"/><stop offset=".6" stop-color="#CEB800"/><stop offset=".8" stop-color="#EF6C00"/><stop offset="1" stop-color="#F80029"/></linearGradient><linearGradient id="q" x1="340.21" y1="29.167" x2="264.724" y2="180.928" gradientUnits="userSpaceOnUse"><stop stop-color="#AE00EB"/><stop offset=".244" stop-color="#2A19F4"/><stop offset=".4" stop-color="#00E456"/><stop offset=".6" stop-color="#CEB800"/><stop offset=".8" stop-color="#EF6C00"/><stop offset="1" stop-color="#F80029"/></linearGradient><linearGradient id="r" x1="340.21" y1="29.167" x2="264.724" y2="180.928" gradientUnits="userSpaceOnUse"><stop stop-color="#AE00EB"/><stop offset=".244" stop-color="#2A19F4"/><stop offset=".4" stop-color="#00E456"/><stop offset=".6" stop-color="#CEB800"/><stop offset=".8" stop-color="#EF6C00"/><stop offset="1" stop-color="#F80029"/></linearGradient><linearGradient id="s" x1="340.21" y1="29.167" x2="264.724" y2="180.928" gradientUnits="userSpaceOnUse"><stop stop-color="#AE00EB"/><stop offset=".244" stop-color="#2A19F4"/><stop offset=".4" stop-color="#00E456"/><stop offset=".6" stop-color="#CEB800"/><stop offset=".8" stop-color="#EF6C00"/><stop offset="1" stop-color="#F80029"/></linearGradient><linearGradient id="t" x1="340.21" y1="29.167" x2="264.724" y2="180.928" gradientUnits="userSpaceOnUse"><stop stop-color="#AE00EB"/><stop offset=".244" stop-color="#2A19F4"/><stop offset=".4" stop-color="#00E456"/><stop offset=".6" stop-color="#CEB800"/><stop offset=".8" stop-color="#EF6C00"/><stop offset="1" stop-color="#F80029"/></linearGradient><linearGradient id="u" x1="340.21" y1="29.167" x2="264.724" y2="180.928" gradientUnits="userSpaceOnUse"><stop stop-color="#AE00EB"/><stop offset=".244" stop-color="#2A19F4"/><stop offset=".4" stop-color="#00E456"/><stop offset=".6" stop-color="#CEB800"/><stop offset=".8" stop-color="#EF6C00"/><stop offset="1" stop-color="#F80029"/></linearGradient><linearGradient id="v" x1="340.21" y1="29.167" x2="264.724" y2="180.928" gradientUnits="userSpaceOnUse"><stop stop-color="#AE00EB"/><stop offset=".244" stop-color="#2A19F4"/><stop offset=".4" stop-color="#00E456"/><stop offset=".6" stop-color="#CEB800"/><stop offset=".8" stop-color="#EF6C00"/><stop offset="1" stop-color="#F80029"/></linearGradient><linearGradient id="w" x1="340.21" y1="29.167" x2="264.724" y2="180.928" gradientUnits="userSpaceOnUse"><stop stop-color="#AE00EB"/><stop offset=".244" stop-color="#2A19F4"/><stop offset=".4" stop-color="#00E456"/><stop offset=".6" stop-color="#CEB800"/><stop offset=".8" stop-color="#EF6C00"/><stop offset="1" stop-color="#F80029"/></linearGradient><linearGradient id="x" x1="340.21" y1="29.167" x2="264.724" y2="180.928" gradientUnits="userSpaceOnUse"><stop stop-color="#AE00EB"/><stop offset=".244" stop-color="#2A19F4"/><stop offset=".4" stop-color="#00E456"/><stop offset=".6" stop-color="#CEB800"/><stop offset=".8" stop-color="#EF6C00"/><stop offset="1" stop-color="#F80029"/></linearGradient><linearGradient id="y" x1="340.21" y1="29.167" x2="264.724" y2="180.928" gradientUnits="userSpaceOnUse"><stop stop-color="#AE00EB"/><stop offset=".244" stop-color="#2A19F4"/><stop offset=".4" stop-color="#00E456"/><stop offset=".6" stop-color="#CEB800"/><stop offset=".8" stop-color="#EF6C00"/><stop offset="1" stop-color="#F80029"/></linearGradient><linearGradient id="z" x1="340.21" y1="29.167" x2="264.724" y2="180.928" gradientUnits="userSpaceOnUse"><stop stop-color="#AE00EB"/><stop offset=".244" stop-color="#2A19F4"/><stop offset=".4" stop-color="#00E456"/><stop offset=".6" stop-color="#CEB800"/><stop offset=".8" stop-color="#EF6C00"/><stop offset="1" stop-color="#F80029"/></linearGradient></defs></svg>