<svg viewBox="0 0 380 59" xmlns="http://www.w3.org/2000/svg"><path d="M375.858.586A22 22 0 0 0 373.876.5c-1.967 0-3.724.386-5.27 1.16-1.547.772-2.767 1.931-3.663 3.477-.881 1.545-1.322 3.491-1.322 5.838v2.339h-4.415v6.744h4.415v11.067c.211-.35.416-.717.614-1.1 1.439-2.774 2.476-6.239 3.486-9.967l.285-1.057.266-.998v-.001c.413-1.553.833-3.132 1.287-4.688.644-2.21 1.355-4.371 2.207-6.342 1.046-2.417 2.35-4.654 4.092-6.386Zm-3.59 13.7c-.428 1.477-.834 3.003-1.246 4.548l-.001.005-.254.954-.071.265c-1.07 3.994-2.225 8.07-3.937 11.371-.858 1.655-1.881 3.164-3.138 4.39v9.867h8.647V20.058h6.226v-6.744h-5.938c-.097.321-.193.645-.288.972Zm2.299-6.523a5.859 5.859 0 0 1 1.12-.097c.515 0 1.017.049 1.505.147.502.099.923.204 1.262.316L380 1.385a9.783 9.783 0 0 0-.318-.092c-2.158 1.27-3.777 3.508-5.115 6.47ZM354.965 36.51c.725-2.062 1.087-4.356 1.087-6.883 0-3.345-.624-6.267-1.872-8.768-1.248-2.515-3.025-4.468-5.331-5.859-2.292-1.405-5.019-2.108-8.179-2.108-3.161 0-5.894.703-8.2 2.108-2.292 1.391-4.062 3.344-5.31 5.859a16.93 16.93 0 0 0-1.355 3.843c3.023 1.635 5.799 3.485 8.298 5.339a25.097 25.097 0 0 1-.005-.478c0-1.883.244-3.561.732-5.037.502-1.475 1.241-2.641 2.218-3.498.99-.857 2.211-1.286 3.663-1.286 1.437 0 2.638.428 3.601 1.286.963.857 1.689 2.023 2.177 3.498.502 1.476.753 3.154.753 5.037s-.251 3.562-.753 5.037c-.388 1.173-.926 2.15-1.614 2.932.356.107.712.186 1.079.24 1.196.178 2.583.1 4.524-.253 1.267-.23 2.729-.57 4.487-1.009Z"/><path d="M341.604 39.305c1.298.727 2.556 1.2 3.945 1.405 1.623.24 3.348.11 5.424-.268a52.763 52.763 0 0 0 2.292-.476 13.839 13.839 0 0 1-4.416 4.266c-2.292 1.39-5.019 2.086-8.179 2.086-3.161 0-5.894-.695-8.2-2.086-2.292-1.405-4.062-3.358-5.31-5.86-1.248-2.514-1.872-5.43-1.872-8.745 0-.619.021-1.223.064-1.812 3.444 1.944 6.576 4.183 9.351 6.378.041.137.083.273.127.407.502 1.476 1.241 2.642 2.218 3.499.99.843 2.211 1.264 3.663 1.264.308 0 .606-.02.893-.058Zm-35.44-20.126c-.684-1.447-1.695-2.679-3.034-3.694-2.265-1.728-5.371-2.593-9.319-2.593-2.672 0-5.005.408-6.999 1.223-1.98.815-3.52 1.974-4.619 3.477-1.085 1.504-1.627 3.295-1.627 5.375 0 2.416.739 4.404 2.217 5.964a8.57 8.57 0 0 0 1.099.962c1.487-.946 2.899-2.096 4.366-3.32l.424-.353c.589-.492 1.189-.994 1.807-1.49a3.101 3.101 0 0 1-.411-.31c-.597-.533-.896-1.187-.896-1.96 0-.969.462-1.742 1.384-2.318.922-.59 2.055-.885 3.398-.885 1.004 0 1.865.176 2.584.527a5.04 5.04 0 0 1 1.034.629 17.637 17.637 0 0 1 4.486-1.056 35.91 35.91 0 0 1 4.106-.178Zm-6.995 3.801a14.877 14.877 0 0 1 3.168-.67 32.945 32.945 0 0 1 4.728-.137c.02.123.037.247.053.372l-7.935.506-.014-.07Zm-5.338 2.87c-1.186.865-2.337 1.826-3.52 2.813l-.266.222c-1.032.86-2.092 1.737-3.219 2.554.839.31 1.764.57 2.774.78l5.412 1.117c1.356.28 2.36.688 3.011 1.222.651.52.984 1.187.997 2.002-.013.97-.488 1.764-1.424 2.382-.922.604-2.143.906-3.663.906-1.546 0-2.814-.337-3.804-1.011-.991-.689-1.615-1.687-1.872-2.993l-8.526.463c.421 3.091 1.852 5.536 4.294 7.335 2.455 1.784 5.751 2.676 9.888 2.676 2.713 0 5.107-.442 7.183-1.327 2.088-.9 3.73-2.15 4.923-3.752 1.208-1.602 1.811-3.463 1.811-5.585 0-2.332-.746-4.215-2.238-5.648-1.492-1.433-3.757-2.473-6.796-3.12l-4.965-1.035Zm-18.811 6.455a6.982 6.982 0 0 0-1.601-2.3c-1.492-1.432-3.757-2.472-6.796-3.118l-2.92-.61c3.275 3.247 6.575 5.737 11.317 6.028Zm-17.029-11.883a3.74 3.74 0 0 1 .392-.28c.922-.59 2.055-.885 3.398-.885 1.003 0 1.865.176 2.584.527.732.337 1.322.794 1.77 1.37.447.562.739 1.194.875 1.897l7.935-.506c-.38-2.979-1.709-5.332-3.988-7.06-2.265-1.728-5.372-2.593-9.319-2.593-2.672 0-5.005.408-6.999 1.223-1.086.447-2.04.997-2.86 1.651 2.365 1.256 4.381 2.908 6.212 4.656Z"/><path d="M249.725 18.029c3.741 1.762 6.585 4.752 9.573 7.894l.616.646c4.051 4.245 8.495 8.609 15.737 8.729.004.117.006.236.006.356 0 2.122-.604 3.983-1.811 5.585-1.193 1.602-2.835 2.852-4.924 3.752-2.075.885-4.469 1.327-7.182 1.327-4.137 0-7.433-.892-9.889-2.676-2.441-1.799-3.872-4.244-4.293-7.335l8.526-.463c.257 1.306.881 2.304 1.871 2.992.991.675 2.259 1.012 3.805 1.012 1.519 0 2.74-.302 3.663-.906.936-.618 1.41-1.412 1.424-2.382-.014-.815-.346-1.482-.997-2.002-.651-.534-1.655-.941-3.011-1.222l-5.413-1.117c-3.052-.633-5.324-1.728-6.816-3.288-1.478-1.56-2.218-3.548-2.218-5.964 0-1.882.445-3.528 1.333-4.938Zm-14.15-3.572a13.242 13.242 0 0 0-1.222-.532c-1.777-.688-3.696-1.033-5.758-1.033-3.065 0-5.738.703-8.016 2.108-2.266 1.405-4.022 3.365-5.27 5.88-1.248 2.515-1.872 5.438-1.872 8.768 0 .178.002.354.005.53a80.197 80.197 0 0 0 3.454-2.777c.455-.384.911-.774 1.368-1.168.524-.451 1.05-.909 1.579-1.368l.067-.06c4.716-4.1 9.68-8.416 15.665-10.348ZM222.003 26.86l-.318.277-.29.253c-1.466 1.275-2.958 2.572-4.499 3.815a59.508 59.508 0 0 1-3.149 2.385c.301 1.804.822 3.447 1.562 4.93 1.248 2.487 3.025 4.412 5.331 5.775 2.319 1.349 5.086 2.023 8.301 2.023 2.577 0 4.849-.407 6.816-1.222 1.981-.829 3.595-1.981 4.843-3.456 1.261-1.49 2.095-3.232 2.502-5.227l-8.016-.548a5.535 5.535 0 0 1-1.302 2.065 5.46 5.46 0 0 1-2.055 1.265c-.801.28-1.682.421-2.646.421-1.451 0-2.706-.316-3.764-.948-1.058-.632-1.878-1.532-2.462-2.698-.569-1.166-.854-2.55-.854-4.152v-.02h21.282V29.33c0-2.753-.373-5.156-1.119-7.207-.746-2.066-1.79-3.78-3.133-5.143a14.13 14.13 0 0 0-.288-.286c-2.792.526-5.365 1.686-7.845 3.23.407.136.792.314 1.154.534a5.943 5.943 0 0 1 2.259 2.339c.542.998.813 2.143.813 3.435h-12.399l-.724.628Zm-14.248 6.91V2.523h-8.668v33.425c3.139-.036 5.981-.855 8.668-2.178Zm-8.668 5.145c3.14-.032 6.005-.749 8.668-1.899v8.67h-8.668v-6.771Zm-7.126-4.285V2.523h-8.647v16.229h-.265c-.38-.872-.936-1.757-1.668-2.656-.719-.913-1.669-1.672-2.849-2.276-1.166-.618-2.625-.928-4.374-.928-2.216 0-4.261.578-6.135 1.733 2.963 1.14 5.478 3.185 7.788 5.501.355-.06.726-.089 1.114-.089 1.397 0 2.584.386 3.56 1.16.977.772 1.723 1.868 2.239 3.287.418 1.151.666 2.468.745 3.952 2.551 2.603 5.25 4.859 8.492 6.194Zm-8.682-2.306c2.499 2.289 5.318 4.291 8.682 5.462v7.9h-8.546v-5.184h-.366c-.407.899-.983 1.79-1.729 2.676-.733.871-1.689 1.595-2.869 2.17-1.167.577-2.591.865-4.273.865-2.374 0-4.524-.632-6.45-1.897-1.913-1.279-3.432-3.154-4.558-5.627-1.112-2.487-1.668-5.536-1.668-9.147 0-3.71.576-6.793 1.729-9.252.607-1.3 1.319-2.429 2.135-3.383 2.845.628 5.274 2.319 7.664 4.588-.833.775-1.474 1.8-1.924 3.073-.502 1.42-.753 3.063-.753 4.932 0 1.883.251 3.548.753 4.995.515 1.433 1.254 2.557 2.217 3.372.977.8 2.177 1.201 3.602 1.201 1.397 0 2.577-.393 3.54-1.18.977-.8 1.723-1.918 2.238-3.35.252-.683.444-1.42.576-2.214Zm-23.644-18.322v-.836a9.603 9.603 0 0 0-1.322-.231c-.502-.057-.97-.085-1.404-.085-1.75 0-3.297.52-4.639 1.56-1.343 1.026-2.3 2.543-2.869 4.552h-.326v-5.648h-8.403v19.59c2.275-2.004 3.834-4.635 5.498-7.445l.002-.003.509-.858c1.413-2.37 2.977-4.84 5.189-6.822 1.996-1.788 4.474-3.142 7.765-3.774Zm-25.688 22.212V23.852c0-1.925-.359-3.576-1.078-4.953a9.421 9.421 0 0 0-2.95-3.414c-1.235-.885-2.652-1.539-4.253-1.96a19.337 19.337 0 0 0-4.985-.633c-2.496 0-4.693.394-6.592 1.18-1.885.773-3.425 1.883-4.619 3.33-1.193 1.434-1.994 3.134-2.401 5.1l8.017.675c.298-1.067.909-1.953 1.831-2.655.923-.717 2.164-1.075 3.724-1.075 1.478 0 2.618.365 3.418 1.096.814.73 1.221 1.763 1.221 3.098v.126c0 .689-.251 1.209-.753 1.56s-1.309.618-2.421.8c-1.113.17-2.578.352-4.395.549a27.641 27.641 0 0 0-4.436.8c-1.397.38-2.645.942-3.744 1.687-1.098.744-1.966 1.728-2.604 2.95-.539 1.035-.851 2.275-.934 3.721.642.085 1.376.196 2.168.315l.39.059.347.052c1.553.232 3.38.496 5.395.72a4.73 4.73 0 0 1-.041-.63c0-.843.21-1.546.631-2.108.42-.576 1.01-1.033 1.77-1.37.759-.337 1.648-.583 2.665-.738l1.587-.231a75.974 75.974 0 0 0 1.75-.316c.583-.127 1.105-.26 1.567-.401.474-.154.847-.323 1.119-.506v3.436c0 1.138-.278 2.156-.834 3.056-.062.1-.127.197-.194.292 3.21-.084 6.496-.442 9.634-1.25Zm-27.796 2.636c.483.069 1.039.152 1.668.247l.67.1c2.138.32 4.848.708 7.87.967 5.277.452 11.595.52 17.588-.9v6.422h-8.22v-4.49h-.244a9.1 9.1 0 0 1-2.014 2.678c-.841.758-1.852 1.355-3.032 1.791-1.18.422-2.543.632-4.09.632-1.993 0-3.77-.358-5.33-1.075-1.56-.73-2.795-1.805-3.703-3.224-.568-.908-.955-1.958-1.163-3.148Zm-5.613-3.586v-21.95h-8.606v5.438h-.326c-.393-.872-.956-1.757-1.689-2.656-.719-.913-1.668-1.672-2.848-2.276-1.18-.618-2.645-.928-4.395-.928a11.58 11.58 0 0 0-6.328 1.834c-1.913 1.222-3.446 3.063-4.599 5.522-.936 1.997-1.492 4.394-1.668 7.189a130.803 130.803 0 0 0 8.814 2.93 19.45 19.45 0 0 1-.024-.972c0-1.841.25-3.464.753-4.869.502-1.405 1.24-2.5 2.218-3.288.976-.8 2.177-1.2 3.6-1.2 1.398 0 2.585.385 3.561 1.158.977.773 1.723 1.862 2.239 3.267.515 1.39.773 3.035.773 4.932 0 1.574-.183 2.965-.547 4.172A159.18 159.18 0 0 0 98.878 35c.596.1 1.151.188 1.66.264Zm-10.434 1.038c3.158.698 6.006 1.242 8.318 1.628.76.127 1.468.238 2.116.332v7.74c0 2.754-.651 5.058-1.953 6.913-1.302 1.855-3.106 3.246-5.412 4.173-2.293.941-4.931 1.412-7.915 1.412-2.808 0-5.216-.4-7.223-1.201-1.994-.787-3.581-1.862-4.761-3.225-1.18-1.363-1.947-2.894-2.3-4.594l8.017-1.117c.244.646.63 1.25 1.16 1.812.529.562 1.227 1.012 2.095 1.349.882.351 1.954.527 3.215.527 1.886 0 3.439-.478 4.66-1.433 1.234-.942 1.851-2.522 1.851-4.742v-5.922h-.366c-.38.899-.95 1.749-1.71 2.55-.759.8-1.736 1.454-2.93 1.96-1.193.505-2.617.758-4.272.758-2.347 0-4.483-.562-6.41-1.686-1.912-1.138-3.438-2.873-4.577-5.205-1.005-2.094-1.561-4.68-1.67-7.758a139.58 139.58 0 0 0 9.372 3.026c.065.22.136.434.213.643.515 1.349 1.254 2.396 2.218 3.14.976.73 2.177 1.096 3.6 1.096 1.398 0 2.578-.358 3.541-1.075a5.97 5.97 0 0 0 1.123-1.101ZM65.243 25.473a17.716 17.716 0 0 0-.84-3.35c-.747-2.065-1.791-3.779-3.134-5.142a12.723 12.723 0 0 0-4.68-3.056c-1.777-.688-3.696-1.033-5.758-1.033-3.065 0-5.738.703-8.017 2.108-.684.424-1.322.9-1.913 1.425 3.475.793 6.98 1.897 10.455 3.179 1.104.053 2.082.338 2.934.855.314.183.606.39.875.619 3.093 1.25 6.146 2.604 9.115 3.963.319.145.64.29.963.432Zm-7.947-.308a260.06 260.06 0 0 1 5.827 2.59c.783.358 1.582.708 2.394 1.05.003.174.005.35.005.526v2.466H44.239v.021c0 1.602.285 2.986.854 4.152.584 1.166 1.404 2.066 2.462 2.698 1.058.632 2.313.948 3.764.948.963 0 1.845-.14 2.645-.421a5.455 5.455 0 0 0 2.056-1.265 5.518 5.518 0 0 0 1.302-2.065l8.016.548c-.407 1.995-1.24 3.737-2.502 5.227-1.248 1.475-2.862 2.627-4.843 3.456-1.967.815-4.239 1.222-6.816 1.222-3.215 0-5.982-.674-8.301-2.023-2.306-1.363-4.083-3.288-5.331-5.775-1.248-2.5-1.872-5.458-1.872-8.873 0-3.33.624-6.252 1.872-8.767.334-.674.706-1.31 1.114-1.904.326.065.653.133.98.204a72.499 72.499 0 0 1 7.047 1.93 6.592 6.592 0 0 0-1.572 1.94c-.526.96-.815 2.02-.867 3.183h13.115c0-.368-.022-.724-.066-1.068ZM31.318 15.127c-.174-2.232-.745-4.213-1.714-5.944-1.166-2.121-2.868-3.758-5.107-4.91-2.224-1.167-4.91-1.75-8.057-1.75H0V29.98l.34-.322a75.941 75.941 0 0 1 4.869-4.202 71.484 71.484 0 0 1 3.601-2.67V9.983h5.941c1.696 0 3.1.26 4.212.78 1.126.506 1.96 1.25 2.503 2.234.479.847.752 1.862.818 3.043 2.929-.736 5.956-1.005 9.034-.914Z"/><path d="M21.908 19.213c2.989-.888 6.141-1.221 9.411-1.117-.172 2.247-.75 4.222-1.735 5.924-1.194 2.052-2.923 3.625-5.188 4.721-.125.06-.25.12-.377.177l8.84 16.768h-9.725l-7.893-15.3h-6.43v15.3H0V34.077a72.702 72.702 0 0 1 5.209-4.843A70.62 70.62 0 0 1 8.81 26.39a64.412 64.412 0 0 1 4.99-3.34h.992c1.682 0 3.08-.238 4.191-.716 1.113-.477 1.94-1.194 2.483-2.15.175-.3.322-.624.442-.97ZM140.672 36.58c3.763-2.482 5.914-6.13 7.876-9.458.192-.325.381-.647.571-.965.155-.26.31-.517.465-.772a7.763 7.763 0 0 0-.244 1.986v18.315h-8.668V36.58Zm11.331-14.717a16.16 16.16 0 0 1 1.741-1.843c1.504-1.347 3.364-2.42 5.891-2.991v4.104c-.407-.127-.97-.239-1.689-.337a14.638 14.638 0 0 0-1.973-.148c-1.275 0-2.415.288-3.419.864a6.402 6.402 0 0 0-.551.351Z"/></svg>